<svg
  xmlns="http://www.w3.org/2000/svg"
  width="8"
  height="568"
  fill="none"
  viewBox="0 0 8 568"
>
  <path
    fill="#776030"
    fill-rule="evenodd"
    d="m5.858 7.153-.35.358-.352-.357-.849-.864.185 555.42.85-.864.35-.357.352.358L8 562.844l-.703.788-1.605-1.639-.978.996 1.615 1.705.36.38-.353.387-1.956 2.152-.352.387-.365-.374-2.096-2.151-.385-.395.386-.393 1.682-1.712-.792-.836-1.6 1.508-.673-.818 1.957-1.843.356-.336.337.357.64.674L3.288 6.319l-.639.674-.337.357-.357-.336L0 5.171l.673-.818 1.6 1.508.792-.836-1.682-1.712-.386-.393.385-.395L3.478.375 3.842 0l.353.387L6.15 2.538l.353.388-.36.38-1.616 1.705.979.996 1.605-1.64.703.789-1.957 1.997ZM2.471 2.917 3.79 4.26l1.278-1.35-1.251-1.375L2.47 2.917ZM3.976 563.74l-1.32 1.343 1.347 1.382 1.251-1.376-1.278-1.349Z"
    clip-rule="evenodd"
  />
</svg>
