<?xml version="1.0" encoding="UTF-8"?>
<!--
Additional SVG icons
-->
<svg xmlns="http://www.w3.org/2000/svg" style="display: none">
  <!--Верховные хранители-->
  <symbol
    id="verhovnye-hraniteli"
    width="12"
    height="13"
    fill="none"
    viewBox="0 0 12 13"
  >
    <g filter="url(#filter0_di_175_2077)">
      <path
        fill="#B19F63"
        fill-rule="evenodd"
        d="M11.999 4.004c-.02.03-.183.054-.374.123a3.24 3.24 0 0 1-.958.157 8.95 8.95 0 0 0-1.297.09c-.289.053-.733.307-.76.359-.026.051.022.322.036.358.013.037.206.135.315.236.109.101.369.482.456.684.087.202.303.325.292.348-.012.022-.04.016-.14-.045-.1-.06-.34-.27-.456-.337-.117-.067-.277-.161-.315-.156-.039.004.023.16.046.269-.009-.041.03.352.094.538.08.235.549.45.888 1.189.171.374.168.746.479 1.435.114.255.493.758.479.774-.014.017-.106-.08-.304-.247-.199-.167-.6-.613-.771-.942-.17-.329-.563-.866-.818-1.02-.255-.154-.43-.241-.467-.236-.038.005-.06.04-.14.101-.08.061-.152.09-.152.09s-.005.015-.024.224c-.019.21-.105.462-.315.74-.21.28-.245.56-.269.572-.023.012-.023.049-.035-.078-.012-.127.028-.241.059-.46.03-.219.016-.496-.024-.493-.04.003-.08.088-.21.19-.131.102-.208.091-.41.348-.165.212-.184.688-.548 1.211-.283.406-.6.5-1.145 1.223-.3.397-.423.757-.444.75-.021-.005.05-.21.105-.493.056-.281.22-.541.374-.863.147-.307.395-.667.502-1.032.068-.23.066-.707.024-.751a1.043 1.043 0 0 0-.328-.146c-.037.003-.119.046-.385.134-.267.089-.687.042-.865.045-.177.003-.415.09-.444.068-.028-.022.11-.098.433-.202.322-.105.507-.266.514-.292.006-.026-.06-.03-.164-.056-.103-.026-.3-.135-.55-.202-.247-.066-.517.074-1.086.146-.568.073-1.324-.301-2.032-.348-.493-.032-.872.044-.865 0 .007-.044.563-.169.841-.224.278-.055 1.192-.07 1.636-.112.444-.042.806-.364.83-.393.022-.028-.014-.059-.024-.157s-.023-.19-.023-.19-.1-.028-.35-.27c-.251-.24-.367-.539-.456-.695-.09-.156-.257-.303-.257-.303s.066.008.163.068c.105.064.245.182.304.246.114.125.43.237.456.225.025-.013-.02-.073-.047-.213-.029-.14.068-.111-.105-.539-.094-.23-.599-.629-.842-1.143-.271-.576-.191-.818-.444-1.402-.176-.41-.607-.912-.584-.931.023-.02.466.4.62.572.153.171.854 1.262 1.063 1.469.208.207.673.44.7.437.028-.002.092-.06.14-.1.05-.04.164-.113.164-.113s-.007-.261.094-.516c.1-.254.288-.459.397-.684.091-.187.125-.439.14-.247.009.108-.054.324-.07.516-.016.193-.035.35.012.427.01.017.013.031.012.042-.018.032-.001.026 0 0a.524.524 0 0 1 .07-.087c.144-.155.49-.238.619-.561.128-.323.199-.56.42-.987.222-.428.635-.686.958-1.01C6.761.81 7.162 0 7.162 0s-.036.24-.116.508a4.21 4.21 0 0 1-.235.591c-.16.329-.63 1.176-.677 1.402-.047.226-.032.621-.012.673.01.026.089.041.17.072.079.031.16.077.18.074.04-.007.196-.132.55-.18.354-.048.438 0 .689 0 .214 0 .43-.104.444-.09.028.03.005.03-.082.09-.087.061-.327.119-.514.202-.187.083-.347.186-.35.213-.007.056.248.051.49.19.169.098.2.07.374.08.277.014.814-.177 1.192-.147.293.024.584.064.958.18.374.115.931.195 1.25.18.319-.017.546-.065.526-.034Zm-3.807 1.21c-.207-.53-.737-1.173-1.625-1.42-.973-.271-1.785.225-2.088.43-.303.204-1.018.794-.867 2.203.14 1.29 1.496 1.936 2.436 1.876 1.226-.077 2.078-1.044 2.184-1.57.09-.45.157-1.016-.04-1.518ZM6.106 8.049c-.866-.005-1.982-.537-2.128-1.665-.166-1.284.485-1.745.75-1.924.266-.18.883-.652 1.792-.387.984.287 1.335.84 1.467 1.247.13.407.124.938.044 1.332-.092.461-.921 1.403-1.925 1.397Zm1.713-2.547c-.145-.53-.417-.79-.795-.881-.425-.102-.877 0-1.232.387-.3.327-.265.418-.313.387-.049-.031-.02-.418.19-.752.209-.335.49-.419.493-.452.003-.033-.429-.048-.706.086-.277.135-.536.205-.828.548-.293.343-.518.562-.347 1.129.05.166.264.567.727.72.436.143.725.061.75.118.026.057-.478.241-.973.194-.41-.04-.454-.249-.515-.183-.062.066.482.673 1.108.892.327.114.777.203 1.12.064.311-.126.544-.455.615-.795.126-.598-.27-1.034-.257-1.075.013-.04.337.102.56.505.222.404.163.574.167.592.005.017.06-.002.113-.097.052-.096.268-.857.123-1.387Z"
        clip-rule="evenodd"
      />
    </g>
    <defs>
      <filter
        id="filter0_di_175_2077"
        width="12"
        height="12.5"
        x="0"
        y="0"
        color-interpolation-filters="sRGB"
        filterUnits="userSpaceOnUse"
      >
        <feFlood flood-opacity="0" result="BackgroundImageFix" />
        <feColorMatrix
          in="SourceAlpha"
          result="hardAlpha"
          values="0 0 0 0 0 0 0 0 0 0 0 0 0 0 0 0 0 0 127 0"
        />
        <feOffset dy=".5" />
        <feComposite in2="hardAlpha" operator="out" />
        <feColorMatrix values="0 0 0 0 0 0 0 0 0 0 0 0 0 0 0 0 0 0 0.4 0" />
        <feBlend
          in2="BackgroundImageFix"
          result="effect1_dropShadow_175_2077"
        />
        <feBlend
          in="SourceGraphic"
          in2="effect1_dropShadow_175_2077"
          result="shape"
        />
        <feColorMatrix
          in="SourceAlpha"
          result="hardAlpha"
          values="0 0 0 0 0 0 0 0 0 0 0 0 0 0 0 0 0 0 127 0"
        />
        <feOffset dy=".5" />
        <feComposite in2="hardAlpha" k2="-1" k3="1" operator="arithmetic" />
        <feColorMatrix
          values="0 0 0 0 0.881945 0 0 0 0 0.788456 0 0 0 0 0.47527 0 0 0 0.5 0"
        />
        <feBlend in2="shape" result="effect2_innerShadow_175_2077" />
      </filter>
    </defs>
  </symbol>
  <!--Площадь искусств-->
  <symbol
    id="ploshhad-iskusstv"
    width="12"
    height="13"
    fill="none"
    viewBox="0 0 12 13"
  >
    <g filter="url(#filter0_di_175_2089)">
      <path
        fill="#B19F63"
        fill-rule="evenodd"
        d="M10.998 8.507c-.537.379-1.209.218-1.625-.276-.527-.625-.221-1.442.56-1.645 1.585-.41 2.064-.982 2.064-.982s.112 2.121-.998 2.903Zm-6.376.052C1.377 9.212-.22 7.78.024 5.38.27 2.982 3.122.652 5.78.118c2.656-.535 3.893.922 3.81 1.245-.084.324-.344.329-.863.737-.573.452-.729.991-.657 1.26.21.776.906.543 1.31.46.403-.083.625.352.358.813-.267.461-1.87 3.274-5.115 3.927Zm-1.91-4.203c-.066-.285-.263-.527-.781-.406-.22.05-.554.282-.688.534-.208.39.116.788.542.702.742-.149.992-.545.927-.83ZM2.56 6.318c-.22.051-.553.282-.688.535-.207.389.116.788.542.702.742-.15.993-.546.927-.83-.065-.285-.263-.528-.78-.407Zm2.046-4.195c-.065-.284-.263-.526-.78-.406-.22.051-.554.282-.689.535-.208.39.116.788.542.702.742-.15.992-.546.927-.83Zm.936 4.078c-.22.051-.554.282-.688.534-.208.39.115.789.542.703.742-.15.992-.546.927-.83-.066-.286-.264-.528-.781-.407Zm1.851-5.04C7.328.874 7.13.632 6.613.753c-.22.051-.554.282-.689.534-.207.39.116.788.542.703.742-.15.993-.546.927-.83ZM4.65 11.423l3.57-3.128.97 1.153-4.08 2.52-.012-.013a.35.35 0 0 1-.17.044.388.388 0 0 1-.389-.383c0-.049.067-.126.118-.186l-.007-.007Zm3.914-3.53.033-.024a.26.26 0 0 1 .347.038l.793.941c.084.1.066.246-.041.326l-.033.024a.26.26 0 0 1-.348-.039l-.792-.94a.222.222 0 0 1 .041-.327Z"
        clip-rule="evenodd"
      />
    </g>
    <defs>
      <filter
        id="filter0_di_175_2089"
        width="12"
        height="12.5"
        x="0"
        y="0"
        color-interpolation-filters="sRGB"
        filterUnits="userSpaceOnUse"
      >
        <feFlood flood-opacity="0" result="BackgroundImageFix" />
        <feColorMatrix
          in="SourceAlpha"
          result="hardAlpha"
          values="0 0 0 0 0 0 0 0 0 0 0 0 0 0 0 0 0 0 127 0"
        />
        <feOffset dy=".5" />
        <feComposite in2="hardAlpha" operator="out" />
        <feColorMatrix values="0 0 0 0 0 0 0 0 0 0 0 0 0 0 0 0 0 0 0.4 0" />
        <feBlend
          in2="BackgroundImageFix"
          result="effect1_dropShadow_175_2089"
        />
        <feBlend
          in="SourceGraphic"
          in2="effect1_dropShadow_175_2089"
          result="shape"
        />
        <feColorMatrix
          in="SourceAlpha"
          result="hardAlpha"
          values="0 0 0 0 0 0 0 0 0 0 0 0 0 0 0 0 0 0 127 0"
        />
        <feOffset dy=".5" />
        <feComposite in2="hardAlpha" k2="-1" k3="1" operator="arithmetic" />
        <feColorMatrix
          values="0 0 0 0 0.881945 0 0 0 0 0.788456 0 0 0 0 0.47527 0 0 0 0.5 0"
        />
        <feBlend in2="shape" result="effect2_innerShadow_175_2089" />
      </filter>
    </defs>
  </symbol>
  <!--Новости Иерихона-->
  <symbol
    id="news-ierihon"
    width="12"
    height="14"
    fill="none"
    viewBox="0 0 12 14"
  >
    <g filter="url(#filter0_di_175_2086)">
      <path
        fill="#B19F63"
        fill-rule="evenodd"
        d="M9.577 5.412c-.246.169-.409.227-.409.277 0 .05.153.213.287.717.133.505.1.692.114.832.014.139.3.287.433.334.134.047.597.171.597.171s-.983.008-1.267.008h-.679s.197-.077.278-.31c.035-.098-.02-.562-.09-.831-.07-.269-.205-.578-.245-.595-.04-.017-.382.138-.613.212-.23.074-.564.139-.564.139s.23-.237.45-.408c.232-.181.45-.315.45-.359 0-.044-.215-.306-.45-.513-.206-.18-.395-.29-.5-.31-.104-.02-.21.026-.261.18-.052.153-.098.35-.098.35s-.141-.835-.196-1.532c-.067-.838-.05-1.565-.05-1.565s.319 1.102.409 1.377c.087.266.11.372.442.563.33.19.536.305.768.513.276.246.492.588.532.595.04.007.158-.068.49-.204.4-.162 1.595-.652 1.595-.652s-1.176.842-1.423 1.01Zm-1.12 2.34s-.71-.082-1.414.716c-.706.799-.875 2.34-.875 2.34v-2.69s.596-.117.596-.701-.596-.652-.596-.652L6.159 0l.27.22s.107 3.275.205 4.14a8.28 8.28 0 0 0 .67 2.413c.292.622 1.153.978 1.153.978Zm-3.222-.335c0 .584.597.7.597.7v2.69s-.17-1.54-.875-2.339c-.705-.798-1.414-.717-1.414-.717s.86-.356 1.153-.978a8.298 8.298 0 0 0 .67-2.413c.098-.865.205-4.14.205-4.14L5.84 0l-.009 6.765s-.597.068-.597.652ZM4.99 5.306s-.046-.197-.098-.35c-.052-.154-.157-.2-.262-.18-.104.02-.293.13-.498.31-.236.207-.45.47-.45.513 0 .044.217.178.45.359.219.171.45.408.45.408s-.334-.065-.565-.139c-.23-.074-.574-.229-.613-.212-.04.017-.175.326-.245.595-.07.269-.125.733-.09.831.081.233.278.31.278.31h-.679c-.284 0-1.267-.008-1.267-.008s.463-.124.597-.171c.133-.047.419-.195.433-.334.014-.14-.019-.327.114-.832.134-.504.287-.667.287-.717 0-.05-.163-.108-.41-.277C2.177 5.243 1 4.402 1 4.402l1.594.651c.333.136.451.21.491.204.04-.007.256-.349.531-.595.233-.208.438-.323.77-.513.33-.19.354-.297.441-.563.09-.275.409-1.378.408-1.377 0 0 .018.727-.049 1.565a20.769 20.769 0 0 1-.196 1.532Zm-.082 3.61c.396.71.561 1.332.59 2.201.027.87.024 1.883.024 1.883l-.793-1.182s.328.15.294-.318a4.234 4.234 0 0 0-.335-1.418C4.477 9.598 4.228 9 3.592 8.591c-.519-.334-.772-.385-1.21-.465-.26-.047-.981-.147-.981-.147l-.025-.016h1.938c.605 0 1.199.244 1.594.954Zm-1.373-.073c.003.014-.054.229.17.511.208.262.508.223.508.223s.07.059.205.358c.134.3.22.628.22.628s-.665-.254-1.267-.864c-.602-.61-.752-1.23-.752-1.23s.262.012.343.056c.082.045.427.222.573.318Zm3.557.074c.395-.71.989-.954 1.594-.954h1.938l-.025.016s-.72.1-.98.147c-.44.08-.692.131-1.211.465-.636.408-.885 1.007-1.096 1.491-.21.484-.301.951-.335 1.418-.034.467.294.318.294.318L6.478 13s-.003-1.014.025-1.883.193-1.49.589-2.2Zm.695.66s.3.04.508-.223c.224-.282.167-.497.17-.51.146-.097.491-.274.573-.319.08-.044.343-.057.343-.057s-.15.621-.752 1.231c-.602.61-1.268.864-1.268.864s.087-.328.221-.628c.135-.299.205-.358.205-.358Z"
        clip-rule="evenodd"
      />
    </g>
    <defs>
      <filter
        id="filter0_di_175_2086"
        width="12"
        height="13.5"
        x="0"
        y="0"
        color-interpolation-filters="sRGB"
        filterUnits="userSpaceOnUse"
      >
        <feFlood flood-opacity="0" result="BackgroundImageFix" />
        <feColorMatrix
          in="SourceAlpha"
          result="hardAlpha"
          values="0 0 0 0 0 0 0 0 0 0 0 0 0 0 0 0 0 0 127 0"
        />
        <feOffset dy=".5" />
        <feComposite in2="hardAlpha" operator="out" />
        <feColorMatrix values="0 0 0 0 0 0 0 0 0 0 0 0 0 0 0 0 0 0 0.4 0" />
        <feBlend
          in2="BackgroundImageFix"
          result="effect1_dropShadow_175_2086"
        />
        <feBlend
          in="SourceGraphic"
          in2="effect1_dropShadow_175_2086"
          result="shape"
        />
        <feColorMatrix
          in="SourceAlpha"
          result="hardAlpha"
          values="0 0 0 0 0 0 0 0 0 0 0 0 0 0 0 0 0 0 127 0"
        />
        <feOffset dy=".5" />
        <feComposite in2="hardAlpha" k2="-1" k3="1" operator="arithmetic" />
        <feColorMatrix
          values="0 0 0 0 0.881945 0 0 0 0 0.788456 0 0 0 0 0.47527 0 0 0 0.5 0"
        />
        <feBlend in2="shape" result="effect2_innerShadow_175_2086" />
      </filter>
    </defs>
  </symbol>
  <!--Главная площадь-->
  <symbol id="general" width="12" height="12" fill="none" viewBox="0 0 12 12">
    <g filter="url(#filter0_di_175_2092)">
      <path
        fill="#B19F63"
        fill-rule="evenodd"
        d="M10.09 4.565a4.05 4.05 0 0 1-1.043 2.622c-.067.163-.12.364-.095.572.038.323.542.685.542.685v.436h-2.53l.482-1.183.02-.01.01-.025c1.138-.597 1.892-1.903 1.892-3.42 0-1.245-.497-2.349-1.316-3.034L8.169 1c.317.195.606.434.857.708.205-.06.421-.18.421-.18s-.158.175-.267.357c.473.58.79 1.294.885 2.078.059.043.131.089.212.123.291.124.663.187.663.187s-.372.063-.663.187c-.07.03-.132.067-.186.105Zm-3.677 2.69.113 1.625H5.442l.113-1.624C4.16 7.04 3.09 5.802 3.09 4.3c0-1.652 1.296-2.991 2.895-2.991 1.6 0 2.895 1.34 2.895 2.991 0 1.502-1.071 2.741-2.466 2.956Zm1.624-1.851a1.007 1.007 0 0 0-.72-.607 1.43 1.43 0 0 1-.071.171c.03.22.018.447-.044.667a1.387 1.387 0 0 0-.134-.392 1.457 1.457 0 0 1-.098.11c-.129.543-.431 1.026-.887 1.335a2.308 2.308 0 0 0 1.954-1.284Zm-.953-1.296c-.103-.627-.677-1.048-1.282-.943-.605.106-1.013.7-.91 1.326.103.626.677 1.048 1.283.942.605-.106 1.012-.7.91-1.325Zm-1.1 2.585.066-.003c.162-.291.279-.65.175-.95a1.405 1.405 0 0 1-.145.018c-.173.144-.376.25-.593.297a.886.886 0 0 0 .282-.312 1.365 1.365 0 0 1-.153-.034 1.974 1.974 0 0 1-1.586-.128 2.296 2.296 0 0 0 1.953 1.112ZM3.667 4.3c0 .464.13.895.35 1.262.336.044.696-.059.891-.32a1.458 1.458 0 0 1-.095-.131 2.253 2.253 0 0 1-.565-.389.96.96 0 0 0 .422.107 1.508 1.508 0 0 1-.032-.097c-.424-.368-.637-.947-.71-1.532a2.44 2.44 0 0 0-.261 1.1Zm.274-1.13c.141.321.392.608.716.633a1.48 1.48 0 0 1 .052-.128 1.647 1.647 0 0 1 .043-.683c.025.121.067.265.135.39a.775.775 0 0 1 .05-.061c.12-.56.432-1.08.916-1.407a2.31 2.31 0 0 0-1.912 1.257Zm2.041-1.262c-.033 0-.066.003-.1.005-.144.265-.287.644-.163.951l.031-.006c.053-.01.106-.015.158-.018.176-.13.374-.231.58-.297-.1.08-.196.19-.264.315l.062.013c.536-.169 1.13-.091 1.648.145a2.295 2.295 0 0 0-1.952-1.108Zm1.084 1.448c.035.042.067.087.097.133.198.08.38.201.536.365a.768.768 0 0 0-.393-.081c.015.042.03.086.041.13.4.394.66.903.699 1.479a2.443 2.443 0 0 0-.099-2.344c-.303-.014-.665.073-.88.318Zm-.444 1.481a.552.552 0 0 0-.056-.314.562.562 0 0 0-.202-.244l-.009.005c.003.01.005.02.009.029.041.09.066.186.07.286a.574.574 0 0 1-.106.353.463.463 0 0 1-.295.195.307.307 0 0 1-.079.002.893.893 0 0 1-.369-.11 1.078 1.078 0 0 1-.338-.303c-.028-.037-.058-.073-.072-.12l-.01-.042a.163.163 0 0 0 .004-.004.556.556 0 0 0 .434.135c.047-.004.084-.008.114-.014a.323.323 0 0 0 .07-.018.102.102 0 0 0 .037-.025c-.014-.006-.026-.013-.038-.014a.845.845 0 0 1-.288-.083.473.473 0 0 1-.22-.216.455.455 0 0 1-.03-.438.624.624 0 0 1 .236-.262c.039-.026.077-.053.117-.076.028-.016.059-.027.088-.04a.92.92 0 0 1 .286-.076.387.387 0 0 1 .175.02.552.552 0 0 0-.26.21c-.078.118-.132.273-.11.318.009-.01.017-.017.023-.026a.775.775 0 0 1 .251-.227.505.505 0 0 1 .16-.059.422.422 0 0 1 .117-.004c.049.005.099.007.145.022.078.025.15.065.202.131a.62.62 0 0 1 .058.1c.016.032.027.066.039.1.03.08.03.166.026.25-.002.05-.002.1-.012.149-.02.088-.043.176-.07.263a.322.322 0 0 1-.097.147Zm-3.966-.595c0 1.517.79 2.823 1.927 3.42l.01.025.02.01.482 1.183h-2.53v-.436s.505-.362.542-.685a1.158 1.158 0 0 0-.095-.572A4.049 4.049 0 0 1 1.97 4.565a1.062 1.062 0 0 0-.186-.105c-.291-.124-.663-.187-.663-.187s.372-.063.663-.187c.08-.034.153-.08.212-.123a4.052 4.052 0 0 1 .885-2.078c-.109-.182-.267-.356-.267-.356s.217.119.421.179A4.02 4.02 0 0 1 3.892 1l.118.208c-.82.685-1.352 1.789-1.352 3.034Zm-.452 4.285v.726h7.65V8.57C10.51 8.856 11 10 11 10H1c0-.744.522-1.359 1.205-1.473Z"
        clip-rule="evenodd"
      />
    </g>
    <defs>
      <filter
        id="filter0_di_175_2092"
        width="12"
        height="12.5"
        x="0"
        y="0"
        color-interpolation-filters="sRGB"
        filterUnits="userSpaceOnUse"
      >
        <feFlood flood-opacity="0" result="BackgroundImageFix" />
        <feColorMatrix
          in="SourceAlpha"
          result="hardAlpha"
          values="0 0 0 0 0 0 0 0 0 0 0 0 0 0 0 0 0 0 127 0"
        />
        <feOffset dy=".5" />
        <feComposite in2="hardAlpha" operator="out" />
        <feColorMatrix values="0 0 0 0 0 0 0 0 0 0 0 0 0 0 0 0 0 0 0.4 0" />
        <feBlend
          in2="BackgroundImageFix"
          result="effect1_dropShadow_175_2092"
        />
        <feBlend
          in="SourceGraphic"
          in2="effect1_dropShadow_175_2092"
          result="shape"
        />
        <feColorMatrix
          in="SourceAlpha"
          result="hardAlpha"
          values="0 0 0 0 0 0 0 0 0 0 0 0 0 0 0 0 0 0 127 0"
        />
        <feOffset dy=".5" />
        <feComposite in2="hardAlpha" k2="-1" k3="1" operator="arithmetic" />
        <feColorMatrix
          values="0 0 0 0 0.881945 0 0 0 0 0.788456 0 0 0 0 0.47527 0 0 0 0.5 0"
        />
        <feBlend in2="shape" result="effect2_innerShadow_175_2092" />
      </filter>
    </defs>
  </symbol>
</svg>
