<?xml version="1.0" encoding="UTF-8"?>
<!--
Additional SVG icons
-->
<svg xmlns="http://www.w3.org/2000/svg" style="display: none">
  <!--English-->
  <symbol
    id="english"
    width="128"
    height="128"
    fill="none"
    viewBox="0 0 128 128"
  >
    <path
      fill="#B19F63"
      d="m73.82 68.123-6.694 3.352-3.127 3.129V84.77l7.282 7.287c.487.487.683 1.197.518 1.865l-3.672 14.689 1.592 1.709 2.759-2.584 7.48-7.49 3.784-11.353c.096-.288.26-.553.475-.768l6.856-6.86-3.004-6.008-14.249-7.134Z"
    />
    <path
      fill="#B19F63"
      d="m66.55 9.052 1.321 5.292c.112.453.062.937-.15 1.355l-3.72 7.448v5.433h5.079l3.353-3.356a1.971 1.971 0 0 1 2.267-.368l7.857 3.931c.465.234.821.641.986 1.137l3.929 11.793a1.969 1.969 0 0 1-.986 2.38l-7.857 3.932a1.996 1.996 0 0 1-.879.207H66.43l-7.443 3.724a1.965 1.965 0 0 1-1.757 0l-6.591-3.297-2.352 2.353v2.303l11.21 11.218a1.966 1.966 0 0 1-1.864 3.298l-15.48-3.873h-7.616c-.522 0-1.02-.208-1.389-.576l-7.857-7.863a1.974 1.974 0 0 1-.518-1.866l3.549-14.197-6.45-3.225a2.013 2.013 0 0 1-.51-.368l-2.826-2.829A54.74 54.74 0 0 0 9 63.962C9 94.31 33.672 119 64 119s55-24.69 55-55.038c0-29.488-23.31-53.563-52.45-54.91Zm28.302 73.99-7.527 7.537-3.783 11.352c-.096.288-.26.553-.476.768l-12.1 11.84a1.96 1.96 0 0 1-1.343.53h-.069a1.974 1.974 0 0 1-1.37-.626l-3.66-3.931a1.97 1.97 0 0 1-.467-1.816l3.66-14.647-7.071-7.075a1.965 1.965 0 0 1-.575-1.39V73.79c0-.522.207-1.021.575-1.39l3.928-3.931c.15-.15.323-.273.51-.369l7.858-3.931a1.965 1.965 0 0 1 1.757 0l15.714 7.863c.38.192.687.499.879.879l3.928 7.862c.38.757.23 1.67-.368 2.27Z"
    />
    <path
      fill="#B19F63"
      d="m44.933 48.812 3.928-3.931a1.971 1.971 0 0 1 2.268-.369l6.978 3.494 6.979-3.494c.272-.134.575-.207.879-.207h11.321l5.92-2.96-3.135-9.406-5.862-2.933-2.927 2.93a1.962 1.962 0 0 1-1.389.575h-7.857a1.964 1.964 0 0 1-1.964-1.966v-7.862c0-.303.073-.607.207-.88l3.602-7.213L62.485 9C45.65 9.462 30.7 17.5 20.913 29.857l3 3.004 7.573 3.789c.825.41 1.25 1.34 1.028 2.234l-3.66 14.647 6.495 6.5h7.044c.161 0 .322.019.476.057l8.835 2.211-6.771-6.776a1.965 1.965 0 0 1-.576-1.39v-3.931c0-.522.208-1.021.576-1.39Z"
    />
  </symbol>
  <!--Материалы для тестеров ЗБТ-->
  <symbol
    id="testers"
    width="120"
    height="110"
    fill="none"
    viewBox="0 0 120 110"
  >
    <path
      fill="#B19F63"
      d="M70.69 28.557c0-1.916-1.563-3.469-3.491-3.469H25.733c-1.929 0-3.492 1.553-3.492 3.47 0 1.915 1.563 3.468 3.492 3.468h41.466c1.932 0 3.492-1.553 3.492-3.469Zm-3.88 17.626c0-1.916-1.563-3.469-3.491-3.469H25.732c-1.928 0-3.491 1.553-3.491 3.47 0 1.915 1.563 3.468 3.492 3.468h37.586c1.932 0 3.492-1.553 3.492-3.469Zm-5.108 17.642c0-1.916-1.564-3.47-3.492-3.47H25.725c-1.929 0-3.492 1.554-3.492 3.47 0 1.915 1.563 3.468 3.492 3.468H58.21c1.928 0 3.492-1.553 3.492-3.468ZM25.725 77.97c-1.929 0-3.492 1.553-3.492 3.47 0 1.915 1.563 3.468 3.492 3.468h29.482c1.928 0 3.492-1.553 3.492-3.469 0-1.915-1.564-3.469-3.492-3.469H25.725Zm68.047 6.02c-2.793 0-5.056-2.226-5.056-4.972 0-2.746 2.264-4.972 5.056-4.972 2.794 0 5.058 2.226 5.058 4.972 0 2.746-2.264 4.972-5.058 4.972Z"
    />
    <path
      fill="#B19F63"
      fill-rule="evenodd"
      d="M118.656 83.933c-1.136.223-2.272.446-3.409.665-.12.023-.173.073-.206.19-.406 1.478-1.042 2.859-1.832 4.172-.072.12-.063.196.018.304 1.128 1.496 2.252 2.996 3.377 4.495.038.05.073.103.117.167l-6.872 6.696c-.051-.033-.1-.061-.146-.093-1.537-1.1-3.074-2.2-4.606-3.305-.134-.098-.226-.091-.361-.013-1.071.627-2.167 1.204-3.367 1.558-.289.085-.582.158-.875.222-.121.026-.169.076-.189.2-.313 1.862-.632 3.722-.953 5.609h-1.564c-2.689 0-5.379-.001-8.068.003-.149 0-.212-.028-.239-.19-.301-1.812-.616-3.621-.92-5.433-.02-.12-.077-.171-.183-.216-1.44-.596-2.879-1.2-4.323-1.79-.068-.03-.19-.001-.258.043a636.57 636.57 0 0 0-4.562 2.992c-.166.11-.25.092-.386-.041a3387.56 3387.56 0 0 0-5.718-5.594l-.38-.371-.001-.002-.469-.458c-.042-.04-.095-.07-.151-.11l.122-.184c1.017-1.494 2.033-2.99 3.056-4.48.092-.133.087-.224.006-.356-.675-1.1-1.292-2.227-1.652-3.471-.066-.23-.112-.464-.185-.692-.02-.062-.093-.143-.153-.153-1.589-.266-3.178-.523-4.767-.782-.33-.053-.658-.108-1.006-.165v-.197c-.001-2.96 0-5.92-.005-8.88 0-.177.055-.225.226-.244 1.4-.155 2.8-.32 4.198-.48.319-.038.637-.08.957-.108.15-.012.224-.07.277-.212.308-.815.606-1.635.948-2.436.249-.58.554-1.137.849-1.697.065-.125.071-.203-.011-.323-1.024-1.49-2.04-2.984-3.059-4.477l-.104-.16.056.042 6.796-6.8.373.267 1.5 1.074c.963.691 1.93 1.38 2.889 2.078.14.101.232.094.375.01.984-.577 1.992-1.116 3.087-1.467.373-.12.755-.212 1.137-.302.13-.03.176-.083.198-.213.308-1.83.622-3.66.935-5.49.005-.03.013-.06.022-.101h9.5l.035.303.123 1.056c.151 1.339.321 2.676.444 4.017.03.338.18.42.466.5 1.399.387 2.714.974 3.973 1.688.068.039.136.076.208.118l4.946-3.545 6.808 6.812-.424.568c-1.004 1.337-2.007 2.677-3.016 4.01-.096.128-.097.22-.03.36a185.22 185.22 0 0 1 1.507 3.186c.14.303.229.63.322.951.034.12.091.167.207.186 1.149.184 2.296.372 3.444.559l.665.109.211.034 1.262.206c.051.009.099.027.154.042v9.27l-1.344.269Zm-37.99-4.915c0-7.117 5.868-12.886 13.106-12.886 7.24 0 13.109 5.769 13.109 12.886 0 7.117-5.869 12.887-13.109 12.887-7.238 0-13.107-5.77-13.107-12.887Z"
      clip-rule="evenodd"
    />
    <path
      fill="#B19F63"
      d="M81.675 103.062H59.497l-8.42-4.444a5.501 5.501 0 0 0-6.864 1.23l-2.755 3.214H11.252c-2.351 0-4.268-1.9-4.268-4.24V71.464l3.593-15.402c.43-1.816-.12-3.754-1.339-4.96l-2.254-2.433V11.174c0-2.336 1.917-4.24 4.268-4.24h22.939l4.3 3.315c1.683 1.256 3.899 1.46 5.812.509l7.558-3.82h29.814c2.394 0 4.268 1.858 4.268 4.24v32.165c0 1.916 1.564 3.469 3.492 3.469 1.929 0 3.492-1.553 3.492-3.469V11.178C92.927 5.015 87.88 0 81.675 0H51.023c-.551 0-1.095.131-1.583.382l-7.466 3.773L37.528.728A3.521 3.521 0 0 0 35.386 0H11.252C5.048 0 0 5.018 0 11.178V50.03c0 .87.33 1.707.923 2.35l2.674 2.876L.089 70.288c-.058.255-.089.52-.089.783v27.751C0 104.985 5.048 110 11.252 110H43.07a3.507 3.507 0 0 0 2.657-1.218l3.03-3.534 8.234 4.347a3.512 3.512 0 0 0 1.638.405h23.047c3.174 0 4.175-1.638 4.175-3.469s-1.001-3.469-4.175-3.469Z"
    />
  </symbol>
  <!--Справочник игрока-->
  <symbol width="136" height="128" viewBox="0 0 136 128" fill="none" id="wiki">
    <g filter="url(#filter0_d_566_5801)">
      <path
        d="M109.586 33.8001C105.765 33.8001 102.655 36.8959 102.655 40.7002V43.0003H116.517V40.7002C116.517 36.8957 113.407 33.8001 109.586 33.8001Z"
        fill="#B19F63"
      />
      <path
        d="M88.793 29.1999C83.6963 29.1999 79.5517 33.3262 79.5517 38.3998V42.9997H98.0346V38.4001C98.0346 33.3262 93.8897 29.1999 88.793 29.1999Z"
        fill="#B19F63"
      />
      <path
        d="M125.759 89V20H80.9496C76.7239 20 72.8057 22.0057 70.3105 25.3683V92.5145C73.3461 90.2696 77.0521 89 80.9496 89H125.759ZM121.138 75.1999H98.0343V70.5999H121.138V75.1999ZM100.345 63.6999V54.5H118.828V63.6999H100.345ZM74.9311 38.4001C74.9311 30.7895 81.1482 24.5999 88.7933 24.5999C94.3635 24.5999 99.1759 27.8888 101.378 32.6154C103.473 30.5086 106.38 29.1999 109.586 29.1999C115.956 29.1999 121.138 34.3587 121.138 40.6999V47.5999H74.9311V38.4001ZM91.1035 54.5V63.6999H77.2413V54.5H91.1035ZM74.9311 70.5999H93.4139V75.1999H74.9311V70.5999ZM74.9311 79.7998H107.276V84.3998H74.9311V79.7998Z"
        fill="#B19F63"
      />
      <path
        d="M65.6895 92.5143V25.3683C63.1946 22.0057 59.2761 20 55.0504 20H10.2413V89H55.0504C58.9482 89 62.6539 90.2694 65.6895 92.5143ZM33.3448 24.5999H47.207V29.1999H33.3448V24.5999ZM14.8622 24.5999H28.7244V29.1999H14.8622V24.5999ZM14.8622 33.8001H47.207V38.4001H14.8622V33.8001ZM14.8622 43H37.9657V47.5999H14.8622V43ZM14.8622 52.1999H33.345V56.7998H14.8622V52.1999ZM51.8276 59.0999L35.6552 75.1999V77.5C35.6552 80.0414 33.5874 82.0999 31.0346 82.0999C28.4818 82.0999 26.4139 80.0414 26.4139 77.5C23.8611 77.5 21.7933 75.4414 21.7933 72.9001C21.7933 70.3587 23.8611 68.3001 26.4139 68.3001H28.7244L44.8968 52.2002V49.9001C44.8968 47.3587 46.9646 45.3001 49.5174 45.3001C52.0702 45.3001 54.1381 47.3587 54.1381 49.9001C56.6909 49.9001 58.7587 51.9586 58.7587 54.5C58.7587 57.0414 56.6909 59.0999 54.1381 59.0999H51.8276Z"
        fill="#B19F63"
      />
      <path
        d="M130.379 24.5999V93.5999H80.9496C76.5069 93.5999 72.3851 95.7963 69.9223 99.4763L68 102.347L66.0777 99.474C63.6149 95.7964 59.491 93.5997 55.0504 93.5997H5.62065V24.5999H1V102.8H61.0689V105.1C61.0689 108.904 64.1786 112 68 112C71.8214 112 74.9311 108.904 74.9311 105.1V102.8H135V24.5999H130.379Z"
        fill="#B19F63"
      />
    </g>
    <defs>
      <filter
        id="filter0_d_566_5801"
        x="0.5"
        y="20"
        width="135"
        height="95.5"
        filterUnits="userSpaceOnUse"
        color-interpolation-filters="sRGB"
      >
        <feFlood flood-opacity="0" result="BackgroundImageFix" />
        <feColorMatrix
          in="SourceAlpha"
          type="matrix"
          values="0 0 0 0 0 0 0 0 0 0 0 0 0 0 0 0 0 0 127 0"
          result="hardAlpha"
        />
        <feOffset dy="3" />
        <feGaussianBlur stdDeviation="0.25" />
        <feComposite in2="hardAlpha" operator="out" />
        <feColorMatrix
          type="matrix"
          values="0 0 0 0 0 0 0 0 0 0 0 0 0 0 0 0 0 0 0.4 0"
        />
        <feBlend
          mode="normal"
          in2="BackgroundImageFix"
          result="effect1_dropShadow_566_5801"
        />
        <feBlend
          mode="normal"
          in="SourceGraphic"
          in2="effect1_dropShadow_566_5801"
          result="shape"
        />
      </filter>
    </defs>
  </symbol>

  <!--Предложения и идеи-->
  <symbol id="ideas" width="128" height="128" fill="none" viewBox="0 0 128 128">
    <path
      fill="#B19F63"
      fill-rule="evenodd"
      d="M47 92.909c-3.882 0-7.65-.493-11.25-1.413-5.886 4.705-13.932 7.504-24.132 8.398a2.593 2.593 0 0 1-1.575-.366 2.893 2.893 0 0 1-1.118-1.254 3.19 3.19 0 0 1-.278-1.715 3.098 3.098 0 0 1 .655-1.59c3.382-4.182 5.56-9.339 6.27-14.839C7.196 71.966 2 60.568 2 47.958 2 23.127 22.148 3 47 3s45 20.133 45 44.951C92 72.782 71.852 92.91 47 92.91ZM40.318 48.87c-.352 1.21-.528 2.571-.528 4.084v3.176h13.05v-1.89c0-.807.125-1.538.377-2.194.301-.655.779-1.31 1.433-1.966.704-.706 1.66-1.462 2.866-2.269 2.011-1.361 3.595-2.722 4.752-4.084 1.207-1.411 2.062-2.924 2.565-4.537.553-1.613.83-3.378.83-5.294 0-4.033-1.484-7.285-4.451-9.755-2.967-2.47-7.166-3.706-12.597-3.706-3.62 0-6.99.479-10.107 1.437a39.17 39.17 0 0 0-8.825 3.781l5.43 10.058c2.465-1.31 4.728-2.294 6.79-2.95 2.111-.655 3.922-.982 5.43-.982 1.157 0 2.112.327 2.866.983.805.605 1.207 1.512 1.207 2.722a6.71 6.71 0 0 1-.377 2.27c-.251.654-.729 1.31-1.433 1.965-.704.656-1.71 1.412-3.017 2.27-1.81 1.159-3.218 2.293-4.224 3.402-.956 1.11-1.634 2.269-2.037 3.479Zm.68 14.671c-1.56 1.059-2.34 2.9-2.34 5.52 0 2.471.78 4.261 2.34 5.37 1.608 1.11 3.494 1.664 5.656 1.664 2.163 0 3.998-.555 5.507-1.664 1.558-1.109 2.338-2.899 2.338-5.37 0-2.62-.78-4.461-2.338-5.52-1.509-1.058-3.344-1.588-5.507-1.588-2.162 0-4.048.53-5.657 1.588Z"
      clip-rule="evenodd"
    />
    <path
      fill="#B19F63"
      d="M103.636 46.78c0 29.042-21.442 52.768-49.136 57.045 7.345 5.019 15.917 7.67 24.666 7.628a43.46 43.46 0 0 0 19.472-4.567c5.316 3.353 12.155 5.388 20.518 6.105a2.51 2.51 0 0 0 1.498-.345 2.72 2.72 0 0 0 1.062-1.168 2.91 2.91 0 0 0-.358-3.074c-3.756-4.625-5.811-10-6.178-16.13 4.422-6.629 6.8-14.538 6.809-22.647 0-14.773-7.843-27.757-19.674-35.198a57.809 57.809 0 0 1 1.321 12.35Z"
    />
  </symbol>
  <!--Кланы и группы-->
  <symbol id="clans" width="128" height="128" fill="none" viewBox="0 0 128 128">
    <path
      fill="#B19F63"
      fill-rule="evenodd"
      d="M92.95 23.644h9.895a2.15 2.15 0 0 1 2.155 2.14v1.69a2.15 2.15 0 0 1-2.155 2.142h-9.896v60.179a3.132 3.132 0 0 1-1.531 2.702 3.186 3.186 0 0 1-1.648.46c-.502 0-1.006-.12-1.472-.36L68.013 82.088v28.242h21.56c.904 0 1.699.575 1.977 1.429l.828 2.54c.207.635.099 1.31-.297 1.85A2.061 2.061 0 0 1 90.4 117H37.6a2.06 2.06 0 0 1-1.681-.851 2.031 2.031 0 0 1-.297-1.85l.828-2.54a2.073 2.073 0 0 1 1.978-1.429h21.559V82.088L39.702 92.597a3.174 3.174 0 0 1-3.12-.1 3.132 3.132 0 0 1-1.531-2.702v-60.18h-9.896A2.15 2.15 0 0 1 23 27.476v-1.69c0-1.18.967-2.141 2.155-2.141h9.896v-1.28c0-.96.785-1.74 1.751-1.74h2.624c.966 0 1.752.78 1.752 1.74v1.28h18.809V18.93c-2.68-1.428-4.508-4.238-4.508-7.465C55.479 6.797 59.3 3 63.999 3c4.7 0 8.522 3.797 8.522 8.465 0 3.227-1.828 6.037-4.508 7.465v4.714h18.81v-1.28c0-.96.785-1.74 1.75-1.74h2.625c.965 0 1.751.78 1.751 1.74v1.28Zm-31.314 57.59v2.811l4.727-2.812-1.87-.968a1.075 1.075 0 0 0-.987 0l-1.87.968Zm-3.06-65.585a5.67 5.67 0 0 1-.45-1.546 7.67 7.67 0 0 1-.076-1.005c-.037-4.206 3.45-7.707 7.684-7.714h.1a5.931 5.931 0 0 1 1.85.323A6.863 6.863 0 0 0 64 4.64c-3.79 0-6.872 3.062-6.872 6.826 0 1.576.542 3.027 1.448 4.184Zm7.788 7.995v-4.048a8.545 8.545 0 0 1-4.728 0v4.048h4.727Zm20.458 9.202v-3.23h-18.81v3.23h18.81Zm-20.459 0v-3.23h-4.727v3.23h4.727Zm-6.376-3.23h-18.81v3.23h18.81v-3.23Zm4.92 10.365c-.286-.876-1.528-.876-1.814 0L59.72 50.329a.953.953 0 0 1-.907.656h-10.92c-.924 0-1.308 1.178-.561 1.719l8.835 6.395c.334.242.474.67.346 1.062L53.137 70.51c-.285.875.72 1.603 1.468 1.062l8.835-6.395a.956.956 0 0 1 1.12 0l8.835 6.395c.748.541 1.753-.187 1.468-1.062l-3.375-10.348a.948.948 0 0 1 .346-1.062l8.835-6.395c.747-.541.363-1.719-.56-1.719h-10.92a.953.953 0 0 1-.908-.656l-3.374-10.35Z"
      clip-rule="evenodd"
    />
  </symbol>
  <!--Обсуждение ЗБТ-->
  <symbol id="cbt" width="128" height="128" fill="none" viewBox="0 0 128 128">
    <path
      fill="#B19F63"
      d="M105.241 57.974c0-8.644-2.063-16.81-5.719-24.027 12.747 5.677 21.664 18.542 21.664 33.468a36.817 36.817 0 0 1-4.122 16.94l4.785 15.906a3.542 3.542 0 0 1-.872 3.512 3.48 3.48 0 0 1-3.485.881l-15.778-4.824a36.062 36.062 0 0 1-22.26 3.741C94.88 94.32 105.24 77.346 105.24 57.974ZM48.99 72.134h2.717c2.597 0 3.896 1.237 3.896 3.712 0 2.594-1.347 3.891-4.04 3.891H48.99v-7.603Z"
    />
    <path
      fill="#B19F63"
      fill-rule="evenodd"
      d="M7.046 57.973a46.293 46.293 0 0 0 5.37 21.656L6.15 100.455a3.54 3.54 0 0 0 .873 3.513 3.477 3.477 0 0 0 3.484.88l20.659-6.316a45.323 45.323 0 0 0 21.482 5.413c25.146 0 45.603-20.623 45.603-45.972C98.252 32.623 77.795 12 52.65 12 27.504 12 7.046 32.624 7.046 57.973Zm59.508-11.087c0 1.946-1.565 3.522-3.495 3.522H42.24c-1.93 0-3.494-1.576-3.494-3.522 0-1.945 1.565-3.522 3.494-3.522h20.82c1.93 0 3.495 1.577 3.495 3.522Zm2.005-9.464H36.74c-1.93 0-3.495-1.578-3.495-3.522 0-1.945 1.565-3.523 3.495-3.523h31.819c1.93 0 3.494 1.578 3.494 3.523 0 1.944-1.565 3.522-3.494 3.522ZM26.534 69.324v4.144h2.753c1.167 0 2.108.264 2.823.792.715.505 1.073 1.31 1.073 2.415 0 1.08-.382 1.885-1.144 2.414-.763.528-1.704.793-2.824.793-1.811 0-3.872-.289-6.184-.865v4.396l.894.252c1.74.505 3.765.757 6.076.757 1.62 0 3.11-.24 4.468-.72 1.359-.481 2.503-1.298 3.432-2.451.93-1.153 1.394-2.559 1.394-4.216 0-1.393-.37-2.582-1.108-3.567-.715-1.01-1.728-1.73-3.038-2.163 1.167-.456 2.12-1.237 2.86-2.342.762-1.129 1.143-2.33 1.143-3.603 0-1.201-.274-2.246-.822-3.135a5.547 5.547 0 0 0-2.145-2.126 10.59 10.59 0 0 0-2.86-1.117 14.053 14.053 0 0 0-3.216-.36c-2.097 0-4.397.348-6.9 1.044v4.18l.823-.18c1.906-.36 3.634-.54 5.183-.54 1.072 0 1.978.252 2.717.756.762.48 1.143 1.226 1.143 2.235 0 1.032-.369 1.825-1.108 2.378-.715.552-1.608.829-2.68.829h-2.753Zm16.487 14.81h8.864c2.812 0 5.136-.685 6.97-2.054 1.835-1.37 2.753-3.424 2.753-6.162 0-2.859-.858-4.937-2.574-6.234-1.715-1.321-4.039-1.982-6.97-1.982H48.99V63.09h10.223v-4.18H43.021v25.224ZM63.158 58.91v5.08h6.47v20.144h6.363V63.99h6.541v-5.08H63.158Z"
      clip-rule="evenodd"
    />
  </symbol>
  <!--Новости-->
  <symbol id="news" width="128" height="128" fill="none" viewBox="0 0 128 128">
    <path
      fill="#B19F63"
      d="M101.241 47.333c-.444 0-.876-.143-1.234-.409a2.097 2.097 0 0 1 .084-3.407l12.414-8.334a2.058 2.058 0 0 1 2.869.577 2.092 2.092 0 0 1-.573 2.89l-12.413 8.333a2.06 2.06 0 0 1-1.147.35Zm6.207 8.334a2.06 2.06 0 0 1-1.341-.497 2.087 2.087 0 0 1-.43-2.666 2.073 2.073 0 0 1 1.117-.898l12.414-4.166a2.06 2.06 0 0 1 1.582.114 2.08 2.08 0 0 1 1.038 1.206 2.1 2.1 0 0 1-.114 1.593 2.08 2.08 0 0 1-1.198 1.045l-12.414 4.167a2.074 2.074 0 0 1-.654.102ZM113.655 89c-.408 0-.807-.122-1.146-.35l-12.414-8.333a2.08 2.08 0 0 1-.88-1.326 2.098 2.098 0 0 1 .307-1.564 2.072 2.072 0 0 1 1.316-.887 2.058 2.058 0 0 1 1.554.31l12.414 8.333a2.096 2.096 0 0 1 .832 2.338 2.09 2.09 0 0 1-.749 1.07 2.06 2.06 0 0 1-1.234.409Zm6.207-12.5c-.222 0-.443-.036-.654-.106l-12.414-4.167a2.076 2.076 0 0 1-1.198-1.045 2.096 2.096 0 0 1 .925-2.8 2.058 2.058 0 0 1 1.581-.113l12.414 4.166a2.091 2.091 0 0 1 .696 3.573 2.06 2.06 0 0 1-1.35.492Zm2.069-12.5h-12.414c-.548 0-1.075-.22-1.463-.61a2.09 2.09 0 0 1 0-2.947c.388-.39.915-.61 1.463-.61h12.414c.549 0 1.075.22 1.463.61a2.09 2.09 0 0 1 0 2.947c-.388.39-.914.61-1.463.61ZM45.834 86.917l1.242 6.25h4.51c.549 0 1.075-.22 1.463-.61.388-.391.606-.921.606-1.474v-2.291l-2.712-1.875h-5.108Zm3.683-4.167V41.083H24.69a20.617 20.617 0 0 0-14.63 6.102A20.907 20.907 0 0 0 4 61.917c0 5.525 2.18 10.824 6.06 14.731a20.617 20.617 0 0 0 14.63 6.102h24.827ZM18.483 72.333h-6.207c-.549 0-1.075-.22-1.463-.61a2.09 2.09 0 0 1 0-2.946c.388-.39.914-.61 1.463-.61h6.207c.549 0 1.075.22 1.463.61a2.09 2.09 0 0 1 0 2.946c-.388.39-.915.61-1.463.61Zm0-8.333h-6.207c-.549 0-1.075-.22-1.463-.61a2.09 2.09 0 0 1 0-2.947c.388-.39.914-.61 1.463-.61h6.207c.549 0 1.075.22 1.463.61a2.09 2.09 0 0 1 0 2.947c-.388.39-.915.61-1.463.61Zm0-8.333h-6.207c-.549 0-1.075-.22-1.463-.61a2.09 2.09 0 0 1 0-2.947c.388-.39.914-.61 1.463-.61h6.207c.549 0 1.075.22 1.463.61a2.09 2.09 0 0 1 0 2.947c-.388.39-.915.61-1.463.61Zm8.731 31.25 4.049 20.383a8.362 8.362 0 0 0 2.872 4.807A8.258 8.258 0 0 0 39.379 114h5.094a2.064 2.064 0 0 0 1.603-.766 2.086 2.086 0 0 0 .425-1.734l-4.885-24.583H27.214ZM64 90.9l18.62 12.89V20.044L64 32.934V90.9Zm31.034-37.317V70.25a10.4 10.4 0 0 0 3.046-3.675 10.476 10.476 0 0 0 0-9.317 10.4 10.4 0 0 0-3.046-3.675ZM88.828 14c-.55 0-1.075.22-1.463.61a2.09 2.09 0 0 0-.606 1.473v91.667c0 .553.218 1.082.606 1.473a2.06 2.06 0 0 0 2.926 0 2.09 2.09 0 0 0 .606-1.473V16.083a2.09 2.09 0 0 0-.606-1.473 2.062 2.062 0 0 0-1.463-.61ZM53.655 83.737l6.207 4.298V35.798l-6.207 4.298v43.642Z"
    />
  </symbol>
  <!--Техническая поддержка-->
  <symbol id="support" width="12" height="13" fill="none" viewBox="0 0 12 13">
    <g filter="url(#filter0_di_175_2098)">
      <path
        fill="#B19F63"
        fill-rule="evenodd"
        d="M11.405 7.437c-.476-.014-.953-.004-1.43-.004h-.138c0 .07.002.124 0 .178-.023.675-.142 1.327-.464 1.93-.035.064-.011.097.031.14.329.328.656.658.984.988l.496.499c.126.128.185.28.141.459a.472.472 0 0 1-.8.229c-.47-.46-.933-.926-1.398-1.389l-.088-.083c-.643.5-1.334.848-2.162.89V4.556H5.423v6.714c-.575.011-1.468-.28-2.253-.976-.039.043-.078.085-.116.129L1.85 11.784a.894.894 0 0 1-.117.114.475.475 0 0 1-.757-.271c-.043-.19.023-.343.148-.482.466-.521.93-1.045 1.395-1.567.048-.053.074-.095.037-.173-.236-.489-.346-1.01-.38-1.548l-.026-.424h-.138c-.469 0-.938-.01-1.406.004-.3.01-.503-.1-.607-.385v-.21c.119-.29.34-.383.642-.374.46.015.922.004 1.383.004h.126c.004-.03.007-.046.007-.06 0-.693.002-1.385-.003-2.077 0-.046-.033-.102-.068-.137-.381-.387-.766-.77-1.15-1.155-.03-.03-.06-.06-.089-.093a.469.469 0 0 1 .068-.701c.196-.153.446-.13.644.067.402.4.8.803 1.204 1.2a.25.25 0 0 0 .16.071c2.05.004 4.101.004 6.152 0 .054 0 .12-.032.16-.07.39-.385.775-.773 1.162-1.16.03-.03.06-.061.093-.089a.474.474 0 0 1 .747.17c.086.19.041.387-.135.564-.394.396-.79.79-1.182 1.188a.287.287 0 0 0-.076.18c-.006.661-.004 1.322-.004 1.983v.119c.517 0 1.017.01 1.516-.004.303-.009.524.085.643.373v.211c-.102.278-.297.393-.595.385ZM4.657.435c.848-.564 1.747-.58 2.613-.047.738.454 1.116 1.142 1.127 2.029H3.604c.005-.851.36-1.521 1.053-1.982Z"
        clip-rule="evenodd"
      />
    </g>
    <defs>
      <filter
        id="filter0_di_175_2098"
        width="12"
        height="12.5"
        x="0"
        y="0"
        color-interpolation-filters="sRGB"
        filterUnits="userSpaceOnUse"
      >
        <feFlood flood-opacity="0" result="BackgroundImageFix" />
        <feColorMatrix
          in="SourceAlpha"
          result="hardAlpha"
          values="0 0 0 0 0 0 0 0 0 0 0 0 0 0 0 0 0 0 127 0"
        />
        <feOffset dy=".5" />
        <feComposite in2="hardAlpha" operator="out" />
        <feColorMatrix values="0 0 0 0 0 0 0 0 0 0 0 0 0 0 0 0 0 0 0.4 0" />
        <feBlend
          in2="BackgroundImageFix"
          result="effect1_dropShadow_175_2098"
        />
        <feBlend
          in="SourceGraphic"
          in2="effect1_dropShadow_175_2098"
          result="shape"
        />
        <feColorMatrix
          in="SourceAlpha"
          result="hardAlpha"
          values="0 0 0 0 0 0 0 0 0 0 0 0 0 0 0 0 0 0 127 0"
        />
        <feOffset dy=".5" />
        <feComposite in2="hardAlpha" k2="-1" k3="1" operator="arithmetic" />
        <feColorMatrix
          values="0 0 0 0 0.881945 0 0 0 0 0.788456 0 0 0 0 0.47527 0 0 0 0.5 0"
        />
        <feBlend in2="shape" result="effect2_innerShadow_175_2098" />
      </filter>
    </defs>
  </symbol>

  <!--Административный раздел-->
  <symbol id="admins" width="12" height="14" fill="none" viewBox="0 0 12 14">
    <g filter="url(#filter0_di_175_2080)">
      <path
        fill="#B19F63"
        fill-rule="evenodd"
        d="M9.59 5.999c-.011.298-.008.596-.025.893-.015.29-.099.562-.298.785a.28.28 0 0 1-.185.084c-1.989.004-3.977.004-5.966 0a.375.375 0 0 1-.18-.052c-.562-.33-.823-.837-.9-1.459-.042-.348-.066-.692.038-1.035.13-.425.398-.745.753-1.011.192-.144.374-.306.532-.484a.722.722 0 0 0 .162-.716c-.029-.094-.088-.18-.139-.278.06.018.124.034.186.056.925.326 1.297 1.39.798 2.151-.135.206-.273.416-.276.678-.003.28.105.447.33.495.308.065.584-.05.688-.297.098-.237.11-.489.098-.74a2.371 2.371 0 0 0-.295-1.021c-.206-.385-.34-.787-.322-1.23a2.108 2.108 0 0 1 .638-1.452c.212-.213.437-.414.653-.623.217-.212.406-.443.518-.727.004-.01.017-.015.018-.016.02.177.025.36.06.536.053.262.199.473.407.65.473.403.905.845 1.251 1.36.298.443.512.918.543 1.455.032.558-.182 1.037-.512 1.476-.088.117-.184.227-.269.345-.115.16-.19.335-.131.538.051.175.2.265.38.218.335-.087.5-.331.588-.638.023-.082.033-.167.05-.25.1-.499.539-.8 1.051-.72l.163.031c-.305.283-.392.628-.407.998Zm.264 3.012c-.163.638-.33 1.275-.486 1.914-.025.099-.068.116-.159.115a45.389 45.389 0 0 0-1.107.002c-.042 0-.109.04-.121.075-.213.605-.419 1.213-.625 1.82-.006.02-.002.042-.003.063h-2.71c-.024-.09-.045-.18-.074-.267-.174-.524-.353-1.047-.525-1.572-.03-.09-.069-.127-.171-.125-.37.007-.738.002-1.107.004-.067 0-.11-.006-.13-.086-.204-.811-.413-1.621-.62-2.432-.007-.028-.008-.057-.012-.092H10c-.05.199-.097.39-.146.58Z"
        clip-rule="evenodd"
      />
    </g>
    <defs>
      <filter
        id="filter0_di_175_2080"
        width="12"
        height="13.5"
        x="0"
        y="0"
        color-interpolation-filters="sRGB"
        filterUnits="userSpaceOnUse"
      >
        <feFlood flood-opacity="0" result="BackgroundImageFix" />
        <feColorMatrix
          in="SourceAlpha"
          result="hardAlpha"
          values="0 0 0 0 0 0 0 0 0 0 0 0 0 0 0 0 0 0 127 0"
        />
        <feOffset dy=".5" />
        <feComposite in2="hardAlpha" operator="out" />
        <feColorMatrix values="0 0 0 0 0 0 0 0 0 0 0 0 0 0 0 0 0 0 0.4 0" />
        <feBlend
          in2="BackgroundImageFix"
          result="effect1_dropShadow_175_2080"
        />
        <feBlend
          in="SourceGraphic"
          in2="effect1_dropShadow_175_2080"
          result="shape"
        />
        <feColorMatrix
          in="SourceAlpha"
          result="hardAlpha"
          values="0 0 0 0 0 0 0 0 0 0 0 0 0 0 0 0 0 0 127 0"
        />
        <feOffset dy=".5" />
        <feComposite in2="hardAlpha" k2="-1" k3="1" operator="arithmetic" />
        <feColorMatrix
          values="0 0 0 0 0.881945 0 0 0 0 0.788456 0 0 0 0 0.47527 0 0 0 0.5 0"
        />
        <feBlend in2="shape" result="effect2_innerShadow_175_2080" />
      </filter>
    </defs>
  </symbol>

  <!--Стафф-->
  <symbol id="staff" width="12" height="13" fill="none" viewBox="0 0 12 13">
    <g filter="url(#filter0_di_175_2104)">
      <path
        fill="#B19F63"
        fill-rule="evenodd"
        d="M11.584 7.64c-.504 2.043-2.375 2.646-2.375 2.646l-.201-1.738s2.09-.65 1.73-4.915c-.023-.276-2.143-.204-2.143-.204l-.153-1.715s1.93-.006 2.916 0c.911.007.725 3.9.226 5.926ZM.767 1.714h7.214l.154 1.715H.614l.153-1.715ZM1.27 0h6.228l.218 1.143H1.029L1.269 0Zm-.24 4h1.714l-.171 4H.686l.343-4Zm2.228 0h2.229l.171 4H3.086l.171-4Zm4.458 0 .342 4H6.172L6 4h1.715Zm1.034 6.286H0L.171 8.57h8.4l.178 1.715Zm-.177.571L8.765 12H.001l.17-1.143h8.4Z"
        clip-rule="evenodd"
      />
    </g>
    <defs>
      <filter
        id="filter0_di_175_2104"
        width="12"
        height="12.5"
        x="0"
        y="0"
        color-interpolation-filters="sRGB"
        filterUnits="userSpaceOnUse"
      >
        <feFlood flood-opacity="0" result="BackgroundImageFix" />
        <feColorMatrix
          in="SourceAlpha"
          result="hardAlpha"
          values="0 0 0 0 0 0 0 0 0 0 0 0 0 0 0 0 0 0 127 0"
        />
        <feOffset dy=".5" />
        <feComposite in2="hardAlpha" operator="out" />
        <feColorMatrix values="0 0 0 0 0 0 0 0 0 0 0 0 0 0 0 0 0 0 0.4 0" />
        <feBlend
          in2="BackgroundImageFix"
          result="effect1_dropShadow_175_2104"
        />
        <feBlend
          in="SourceGraphic"
          in2="effect1_dropShadow_175_2104"
          result="shape"
        />
        <feColorMatrix
          in="SourceAlpha"
          result="hardAlpha"
          values="0 0 0 0 0 0 0 0 0 0 0 0 0 0 0 0 0 0 127 0"
        />
        <feOffset dy=".5" />
        <feComposite in2="hardAlpha" k2="-1" k3="1" operator="arithmetic" />
        <feColorMatrix
          values="0 0 0 0 0.881945 0 0 0 0 0.788456 0 0 0 0 0.47527 0 0 0 0.5 0"
        />
        <feBlend in2="shape" result="effect2_innerShadow_175_2104" />
      </filter>
    </defs>
  </symbol>

  <!--Штаб теней-->
  <symbol
    id="shtab-tenej"
    width="12"
    height="13"
    fill="none"
    viewBox="0 0 12 13"
  >
    <g filter="url(#filter0_di_175_2083)">
      <path
        fill="#B19F63"
        fill-rule="evenodd"
        d="m4.662 8.74-.548-.37 6.667-7.098-7.032 6.73-.366-.553L9.32 1.457l2.01-.738-.731 2.028L4.662 8.74Zm-.114-7.078c-.197-.401-3.276-.115-3.407.174-.132.29.359 2.37.359 2.37l1.358-.056-.124-1.135.764-.077.509 1.633-.352.414s-2.318.352-2.359.357c-.04.005-.941-.633-.941-.633S-.172 1.33.058.783C.288.238 3.953 0 3.953 0s1.701.511 2.074.934c.285.324.62 1.842.762 2.531L5.766 4.58c-.347-.852-1.07-2.616-1.218-2.918Zm-3.174 8.552 1.461-1.66-.822-1.566.274-.277 1.37 1.752 1.736 1.382-.274.277-1.553-.83-1.644 1.475s.213.323-.183.738c-.44.461-1.004-.093-1.004-.093s-.55-.57-.092-1.014c.411-.399.73-.184.73-.184Zm6.844-1.91L12 11.574 10.94 12 7.473 9.421l-.755-2.177.879-.894.621 1.954Z"
        clip-rule="evenodd"
      />
    </g>
    <defs>
      <filter
        id="filter0_di_175_2083"
        width="12"
        height="12.5"
        x="0"
        y="0"
        color-interpolation-filters="sRGB"
        filterUnits="userSpaceOnUse"
      >
        <feFlood flood-opacity="0" result="BackgroundImageFix" />
        <feColorMatrix
          in="SourceAlpha"
          result="hardAlpha"
          values="0 0 0 0 0 0 0 0 0 0 0 0 0 0 0 0 0 0 127 0"
        />
        <feOffset dy=".5" />
        <feComposite in2="hardAlpha" operator="out" />
        <feColorMatrix values="0 0 0 0 0 0 0 0 0 0 0 0 0 0 0 0 0 0 0.4 0" />
        <feBlend
          in2="BackgroundImageFix"
          result="effect1_dropShadow_175_2083"
        />
        <feBlend
          in="SourceGraphic"
          in2="effect1_dropShadow_175_2083"
          result="shape"
        />
        <feColorMatrix
          in="SourceAlpha"
          result="hardAlpha"
          values="0 0 0 0 0 0 0 0 0 0 0 0 0 0 0 0 0 0 127 0"
        />
        <feOffset dy=".5" />
        <feComposite in2="hardAlpha" k2="-1" k3="1" operator="arithmetic" />
        <feColorMatrix
          values="0 0 0 0 0.881945 0 0 0 0 0.788456 0 0 0 0 0.47527 0 0 0 0.5 0"
        />
        <feBlend in2="shape" result="effect2_innerShadow_175_2083" />
      </filter>
    </defs>
  </symbol>

  <!--Модераторский раздел-->
  <symbol
    id="moderators"
    width="12"
    height="13"
    fill="none"
    viewBox="0 0 12 13"
  >
    <g filter="url(#filter0_di_175_2077)">
      <path
        fill="#B19F63"
        fill-rule="evenodd"
        d="M11.999 4.004c-.02.03-.183.054-.374.123a3.24 3.24 0 0 1-.958.157 8.95 8.95 0 0 0-1.297.09c-.289.053-.733.307-.76.359-.026.051.022.322.036.358.013.037.206.135.315.236.109.101.369.482.456.684.087.202.303.325.292.348-.012.022-.04.016-.14-.045-.1-.06-.34-.27-.456-.337-.117-.067-.277-.161-.315-.156-.039.004.023.16.046.269-.009-.041.03.352.094.538.08.235.549.45.888 1.189.171.374.168.746.479 1.435.114.255.493.758.479.774-.014.017-.106-.08-.304-.247-.199-.167-.6-.613-.771-.942-.17-.329-.563-.866-.818-1.02-.255-.154-.43-.241-.467-.236-.038.005-.06.04-.14.101-.08.061-.152.09-.152.09s-.005.015-.024.224c-.019.21-.105.462-.315.74-.21.28-.245.56-.269.572-.023.012-.023.049-.035-.078-.012-.127.028-.241.059-.46.03-.219.016-.496-.024-.493-.04.003-.08.088-.21.19-.131.102-.208.091-.41.348-.165.212-.184.688-.548 1.211-.283.406-.6.5-1.145 1.223-.3.397-.423.757-.444.75-.021-.005.05-.21.105-.493.056-.281.22-.541.374-.863.147-.307.395-.667.502-1.032.068-.23.066-.707.024-.751a1.043 1.043 0 0 0-.328-.146c-.037.003-.119.046-.385.134-.267.089-.687.042-.865.045-.177.003-.415.09-.444.068-.028-.022.11-.098.433-.202.322-.105.507-.266.514-.292.006-.026-.06-.03-.164-.056-.103-.026-.3-.135-.55-.202-.247-.066-.517.074-1.086.146-.568.073-1.324-.301-2.032-.348-.493-.032-.872.044-.865 0 .007-.044.563-.169.841-.224.278-.055 1.192-.07 1.636-.112.444-.042.806-.364.83-.393.022-.028-.014-.059-.024-.157s-.023-.19-.023-.19-.1-.028-.35-.27c-.251-.24-.367-.539-.456-.695-.09-.156-.257-.303-.257-.303s.066.008.163.068c.105.064.245.182.304.246.114.125.43.237.456.225.025-.013-.02-.073-.047-.213-.029-.14.068-.111-.105-.539-.094-.23-.599-.629-.842-1.143-.271-.576-.191-.818-.444-1.402-.176-.41-.607-.912-.584-.931.023-.02.466.4.62.572.153.171.854 1.262 1.063 1.469.208.207.673.44.7.437.028-.002.092-.06.14-.1.05-.04.164-.113.164-.113s-.007-.261.094-.516c.1-.254.288-.459.397-.684.091-.187.125-.439.14-.247.009.108-.054.324-.07.516-.016.193-.035.35.012.427.01.017.013.031.012.042-.018.032-.001.026 0 0a.524.524 0 0 1 .07-.087c.144-.155.49-.238.619-.561.128-.323.199-.56.42-.987.222-.428.635-.686.958-1.01C6.761.81 7.162 0 7.162 0s-.036.24-.116.508a4.21 4.21 0 0 1-.235.591c-.16.329-.63 1.176-.677 1.402-.047.226-.032.621-.012.673.01.026.089.041.17.072.079.031.16.077.18.074.04-.007.196-.132.55-.18.354-.048.438 0 .689 0 .214 0 .43-.104.444-.09.028.03.005.03-.082.09-.087.061-.327.119-.514.202-.187.083-.347.186-.35.213-.007.056.248.051.49.19.169.098.2.07.374.08.277.014.814-.177 1.192-.147.293.024.584.064.958.18.374.115.931.195 1.25.18.319-.017.546-.065.526-.034Zm-3.807 1.21c-.207-.53-.737-1.173-1.625-1.42-.973-.271-1.785.225-2.088.43-.303.204-1.018.794-.867 2.203.14 1.29 1.496 1.936 2.436 1.876 1.226-.077 2.078-1.044 2.184-1.57.09-.45.157-1.016-.04-1.518ZM6.106 8.049c-.866-.005-1.982-.537-2.128-1.665-.166-1.284.485-1.745.75-1.924.266-.18.883-.652 1.792-.387.984.287 1.335.84 1.467 1.247.13.407.124.938.044 1.332-.092.461-.921 1.403-1.925 1.397Zm1.713-2.547c-.145-.53-.417-.79-.795-.881-.425-.102-.877 0-1.232.387-.3.327-.265.418-.313.387-.049-.031-.02-.418.19-.752.209-.335.49-.419.493-.452.003-.033-.429-.048-.706.086-.277.135-.536.205-.828.548-.293.343-.518.562-.347 1.129.05.166.264.567.727.72.436.143.725.061.75.118.026.057-.478.241-.973.194-.41-.04-.454-.249-.515-.183-.062.066.482.673 1.108.892.327.114.777.203 1.12.064.311-.126.544-.455.615-.795.126-.598-.27-1.034-.257-1.075.013-.04.337.102.56.505.222.404.163.574.167.592.005.017.06-.002.113-.097.052-.096.268-.857.123-1.387Z"
        clip-rule="evenodd"
      />
    </g>
    <defs>
      <filter
        id="filter0_di_175_2077"
        width="12"
        height="12.5"
        x="0"
        y="0"
        color-interpolation-filters="sRGB"
        filterUnits="userSpaceOnUse"
      >
        <feFlood flood-opacity="0" result="BackgroundImageFix" />
        <feColorMatrix
          in="SourceAlpha"
          result="hardAlpha"
          values="0 0 0 0 0 0 0 0 0 0 0 0 0 0 0 0 0 0 127 0"
        />
        <feOffset dy=".5" />
        <feComposite in2="hardAlpha" operator="out" />
        <feColorMatrix values="0 0 0 0 0 0 0 0 0 0 0 0 0 0 0 0 0 0 0.4 0" />
        <feBlend
          in2="BackgroundImageFix"
          result="effect1_dropShadow_175_2077"
        />
        <feBlend
          in="SourceGraphic"
          in2="effect1_dropShadow_175_2077"
          result="shape"
        />
        <feColorMatrix
          in="SourceAlpha"
          result="hardAlpha"
          values="0 0 0 0 0 0 0 0 0 0 0 0 0 0 0 0 0 0 127 0"
        />
        <feOffset dy=".5" />
        <feComposite in2="hardAlpha" k2="-1" k3="1" operator="arithmetic" />
        <feColorMatrix
          values="0 0 0 0 0.881945 0 0 0 0 0.788456 0 0 0 0 0.47527 0 0 0 0.5 0"
        />
        <feBlend in2="shape" result="effect2_innerShadow_175_2077" />
      </filter>
    </defs>
  </symbol>
  <!--Площадь искусств-->
  <symbol
    id="ploshhad-iskusstv"
    width="12"
    height="13"
    fill="none"
    viewBox="0 0 12 13"
  >
    <g filter="url(#filter0_di_175_2089)">
      <path
        fill="#B19F63"
        fill-rule="evenodd"
        d="M10.998 8.507c-.537.379-1.209.218-1.625-.276-.527-.625-.221-1.442.56-1.645 1.585-.41 2.064-.982 2.064-.982s.112 2.121-.998 2.903Zm-6.376.052C1.377 9.212-.22 7.78.024 5.38.27 2.982 3.122.652 5.78.118c2.656-.535 3.893.922 3.81 1.245-.084.324-.344.329-.863.737-.573.452-.729.991-.657 1.26.21.776.906.543 1.31.46.403-.083.625.352.358.813-.267.461-1.87 3.274-5.115 3.927Zm-1.91-4.203c-.066-.285-.263-.527-.781-.406-.22.05-.554.282-.688.534-.208.39.116.788.542.702.742-.149.992-.545.927-.83ZM2.56 6.318c-.22.051-.553.282-.688.535-.207.389.116.788.542.702.742-.15.993-.546.927-.83-.065-.285-.263-.528-.78-.407Zm2.046-4.195c-.065-.284-.263-.526-.78-.406-.22.051-.554.282-.689.535-.208.39.116.788.542.702.742-.15.992-.546.927-.83Zm.936 4.078c-.22.051-.554.282-.688.534-.208.39.115.789.542.703.742-.15.992-.546.927-.83-.066-.286-.264-.528-.781-.407Zm1.851-5.04C7.328.874 7.13.632 6.613.753c-.22.051-.554.282-.689.534-.207.39.116.788.542.703.742-.15.993-.546.927-.83ZM4.65 11.423l3.57-3.128.97 1.153-4.08 2.52-.012-.013a.35.35 0 0 1-.17.044.388.388 0 0 1-.389-.383c0-.049.067-.126.118-.186l-.007-.007Zm3.914-3.53.033-.024a.26.26 0 0 1 .347.038l.793.941c.084.1.066.246-.041.326l-.033.024a.26.26 0 0 1-.348-.039l-.792-.94a.222.222 0 0 1 .041-.327Z"
        clip-rule="evenodd"
      />
    </g>
    <defs>
      <filter
        id="filter0_di_175_2089"
        width="12"
        height="12.5"
        x="0"
        y="0"
        color-interpolation-filters="sRGB"
        filterUnits="userSpaceOnUse"
      >
        <feFlood flood-opacity="0" result="BackgroundImageFix" />
        <feColorMatrix
          in="SourceAlpha"
          result="hardAlpha"
          values="0 0 0 0 0 0 0 0 0 0 0 0 0 0 0 0 0 0 127 0"
        />
        <feOffset dy=".5" />
        <feComposite in2="hardAlpha" operator="out" />
        <feColorMatrix values="0 0 0 0 0 0 0 0 0 0 0 0 0 0 0 0 0 0 0.4 0" />
        <feBlend
          in2="BackgroundImageFix"
          result="effect1_dropShadow_175_2089"
        />
        <feBlend
          in="SourceGraphic"
          in2="effect1_dropShadow_175_2089"
          result="shape"
        />
        <feColorMatrix
          in="SourceAlpha"
          result="hardAlpha"
          values="0 0 0 0 0 0 0 0 0 0 0 0 0 0 0 0 0 0 127 0"
        />
        <feOffset dy=".5" />
        <feComposite in2="hardAlpha" k2="-1" k3="1" operator="arithmetic" />
        <feColorMatrix
          values="0 0 0 0 0.881945 0 0 0 0 0.788456 0 0 0 0 0.47527 0 0 0 0.5 0"
        />
        <feBlend in2="shape" result="effect2_innerShadow_175_2089" />
      </filter>
    </defs>
  </symbol>
  <!--Обсуждение игры-->
  <symbol id="discuss" width="12" height="14" fill="none" viewBox="0 0 12 14">
    <g filter="url(#filter0_di_175_2086)">
      <path
        fill="#B19F63"
        fill-rule="evenodd"
        d="M9.577 5.412c-.246.169-.409.227-.409.277 0 .05.153.213.287.717.133.505.1.692.114.832.014.139.3.287.433.334.134.047.597.171.597.171s-.983.008-1.267.008h-.679s.197-.077.278-.31c.035-.098-.02-.562-.09-.831-.07-.269-.205-.578-.245-.595-.04-.017-.382.138-.613.212-.23.074-.564.139-.564.139s.23-.237.45-.408c.232-.181.45-.315.45-.359 0-.044-.215-.306-.45-.513-.206-.18-.395-.29-.5-.31-.104-.02-.21.026-.261.18-.052.153-.098.35-.098.35s-.141-.835-.196-1.532c-.067-.838-.05-1.565-.05-1.565s.319 1.102.409 1.377c.087.266.11.372.442.563.33.19.536.305.768.513.276.246.492.588.532.595.04.007.158-.068.49-.204.4-.162 1.595-.652 1.595-.652s-1.176.842-1.423 1.01Zm-1.12 2.34s-.71-.082-1.414.716c-.706.799-.875 2.34-.875 2.34v-2.69s.596-.117.596-.701-.596-.652-.596-.652L6.159 0l.27.22s.107 3.275.205 4.14a8.28 8.28 0 0 0 .67 2.413c.292.622 1.153.978 1.153.978Zm-3.222-.335c0 .584.597.7.597.7v2.69s-.17-1.54-.875-2.339c-.705-.798-1.414-.717-1.414-.717s.86-.356 1.153-.978a8.298 8.298 0 0 0 .67-2.413c.098-.865.205-4.14.205-4.14L5.84 0l-.009 6.765s-.597.068-.597.652ZM4.99 5.306s-.046-.197-.098-.35c-.052-.154-.157-.2-.262-.18-.104.02-.293.13-.498.31-.236.207-.45.47-.45.513 0 .044.217.178.45.359.219.171.45.408.45.408s-.334-.065-.565-.139c-.23-.074-.574-.229-.613-.212-.04.017-.175.326-.245.595-.07.269-.125.733-.09.831.081.233.278.31.278.31h-.679c-.284 0-1.267-.008-1.267-.008s.463-.124.597-.171c.133-.047.419-.195.433-.334.014-.14-.019-.327.114-.832.134-.504.287-.667.287-.717 0-.05-.163-.108-.41-.277C2.177 5.243 1 4.402 1 4.402l1.594.651c.333.136.451.21.491.204.04-.007.256-.349.531-.595.233-.208.438-.323.77-.513.33-.19.354-.297.441-.563.09-.275.409-1.378.408-1.377 0 0 .018.727-.049 1.565a20.769 20.769 0 0 1-.196 1.532Zm-.082 3.61c.396.71.561 1.332.59 2.201.027.87.024 1.883.024 1.883l-.793-1.182s.328.15.294-.318a4.234 4.234 0 0 0-.335-1.418C4.477 9.598 4.228 9 3.592 8.591c-.519-.334-.772-.385-1.21-.465-.26-.047-.981-.147-.981-.147l-.025-.016h1.938c.605 0 1.199.244 1.594.954Zm-1.373-.073c.003.014-.054.229.17.511.208.262.508.223.508.223s.07.059.205.358c.134.3.22.628.22.628s-.665-.254-1.267-.864c-.602-.61-.752-1.23-.752-1.23s.262.012.343.056c.082.045.427.222.573.318Zm3.557.074c.395-.71.989-.954 1.594-.954h1.938l-.025.016s-.72.1-.98.147c-.44.08-.692.131-1.211.465-.636.408-.885 1.007-1.096 1.491-.21.484-.301.951-.335 1.418-.034.467.294.318.294.318L6.478 13s-.003-1.014.025-1.883.193-1.49.589-2.2Zm.695.66s.3.04.508-.223c.224-.282.167-.497.17-.51.146-.097.491-.274.573-.319.08-.044.343-.057.343-.057s-.15.621-.752 1.231c-.602.61-1.268.864-1.268.864s.087-.328.221-.628c.135-.299.205-.358.205-.358Z"
        clip-rule="evenodd"
      />
    </g>
    <defs>
      <filter
        id="filter0_di_175_2086"
        width="12"
        height="13.5"
        x="0"
        y="0"
        color-interpolation-filters="sRGB"
        filterUnits="userSpaceOnUse"
      >
        <feFlood flood-opacity="0" result="BackgroundImageFix" />
        <feColorMatrix
          in="SourceAlpha"
          result="hardAlpha"
          values="0 0 0 0 0 0 0 0 0 0 0 0 0 0 0 0 0 0 127 0"
        />
        <feOffset dy=".5" />
        <feComposite in2="hardAlpha" operator="out" />
        <feColorMatrix values="0 0 0 0 0 0 0 0 0 0 0 0 0 0 0 0 0 0 0.4 0" />
        <feBlend
          in2="BackgroundImageFix"
          result="effect1_dropShadow_175_2086"
        />
        <feBlend
          in="SourceGraphic"
          in2="effect1_dropShadow_175_2086"
          result="shape"
        />
        <feColorMatrix
          in="SourceAlpha"
          result="hardAlpha"
          values="0 0 0 0 0 0 0 0 0 0 0 0 0 0 0 0 0 0 127 0"
        />
        <feOffset dy=".5" />
        <feComposite in2="hardAlpha" k2="-1" k3="1" operator="arithmetic" />
        <feColorMatrix
          values="0 0 0 0 0.881945 0 0 0 0 0.788456 0 0 0 0 0.47527 0 0 0 0.5 0"
        />
        <feBlend in2="shape" result="effect2_innerShadow_175_2086" />
      </filter>
    </defs>
  </symbol>
  <!--Сообщество-->
  <symbol id="community" width="12" height="12" fill="none" viewBox="0 0 12 12">
    <g filter="url(#filter0_di_175_2092)">
      <path
        fill="#B19F63"
        fill-rule="evenodd"
        d="M10.09 4.565a4.05 4.05 0 0 1-1.043 2.622c-.067.163-.12.364-.095.572.038.323.542.685.542.685v.436h-2.53l.482-1.183.02-.01.01-.025c1.138-.597 1.892-1.903 1.892-3.42 0-1.245-.497-2.349-1.316-3.034L8.169 1c.317.195.606.434.857.708.205-.06.421-.18.421-.18s-.158.175-.267.357c.473.58.79 1.294.885 2.078.059.043.131.089.212.123.291.124.663.187.663.187s-.372.063-.663.187c-.07.03-.132.067-.186.105Zm-3.677 2.69.113 1.625H5.442l.113-1.624C4.16 7.04 3.09 5.802 3.09 4.3c0-1.652 1.296-2.991 2.895-2.991 1.6 0 2.895 1.34 2.895 2.991 0 1.502-1.071 2.741-2.466 2.956Zm1.624-1.851a1.007 1.007 0 0 0-.72-.607 1.43 1.43 0 0 1-.071.171c.03.22.018.447-.044.667a1.387 1.387 0 0 0-.134-.392 1.457 1.457 0 0 1-.098.11c-.129.543-.431 1.026-.887 1.335a2.308 2.308 0 0 0 1.954-1.284Zm-.953-1.296c-.103-.627-.677-1.048-1.282-.943-.605.106-1.013.7-.91 1.326.103.626.677 1.048 1.283.942.605-.106 1.012-.7.91-1.325Zm-1.1 2.585.066-.003c.162-.291.279-.65.175-.95a1.405 1.405 0 0 1-.145.018c-.173.144-.376.25-.593.297a.886.886 0 0 0 .282-.312 1.365 1.365 0 0 1-.153-.034 1.974 1.974 0 0 1-1.586-.128 2.296 2.296 0 0 0 1.953 1.112ZM3.667 4.3c0 .464.13.895.35 1.262.336.044.696-.059.891-.32a1.458 1.458 0 0 1-.095-.131 2.253 2.253 0 0 1-.565-.389.96.96 0 0 0 .422.107 1.508 1.508 0 0 1-.032-.097c-.424-.368-.637-.947-.71-1.532a2.44 2.44 0 0 0-.261 1.1Zm.274-1.13c.141.321.392.608.716.633a1.48 1.48 0 0 1 .052-.128 1.647 1.647 0 0 1 .043-.683c.025.121.067.265.135.39a.775.775 0 0 1 .05-.061c.12-.56.432-1.08.916-1.407a2.31 2.31 0 0 0-1.912 1.257Zm2.041-1.262c-.033 0-.066.003-.1.005-.144.265-.287.644-.163.951l.031-.006c.053-.01.106-.015.158-.018.176-.13.374-.231.58-.297-.1.08-.196.19-.264.315l.062.013c.536-.169 1.13-.091 1.648.145a2.295 2.295 0 0 0-1.952-1.108Zm1.084 1.448c.035.042.067.087.097.133.198.08.38.201.536.365a.768.768 0 0 0-.393-.081c.015.042.03.086.041.13.4.394.66.903.699 1.479a2.443 2.443 0 0 0-.099-2.344c-.303-.014-.665.073-.88.318Zm-.444 1.481a.552.552 0 0 0-.056-.314.562.562 0 0 0-.202-.244l-.009.005c.003.01.005.02.009.029.041.09.066.186.07.286a.574.574 0 0 1-.106.353.463.463 0 0 1-.295.195.307.307 0 0 1-.079.002.893.893 0 0 1-.369-.11 1.078 1.078 0 0 1-.338-.303c-.028-.037-.058-.073-.072-.12l-.01-.042a.163.163 0 0 0 .004-.004.556.556 0 0 0 .434.135c.047-.004.084-.008.114-.014a.323.323 0 0 0 .07-.018.102.102 0 0 0 .037-.025c-.014-.006-.026-.013-.038-.014a.845.845 0 0 1-.288-.083.473.473 0 0 1-.22-.216.455.455 0 0 1-.03-.438.624.624 0 0 1 .236-.262c.039-.026.077-.053.117-.076.028-.016.059-.027.088-.04a.92.92 0 0 1 .286-.076.387.387 0 0 1 .175.02.552.552 0 0 0-.26.21c-.078.118-.132.273-.11.318.009-.01.017-.017.023-.026a.775.775 0 0 1 .251-.227.505.505 0 0 1 .16-.059.422.422 0 0 1 .117-.004c.049.005.099.007.145.022.078.025.15.065.202.131a.62.62 0 0 1 .058.1c.016.032.027.066.039.1.03.08.03.166.026.25-.002.05-.002.1-.012.149-.02.088-.043.176-.07.263a.322.322 0 0 1-.097.147Zm-3.966-.595c0 1.517.79 2.823 1.927 3.42l.01.025.02.01.482 1.183h-2.53v-.436s.505-.362.542-.685a1.158 1.158 0 0 0-.095-.572A4.049 4.049 0 0 1 1.97 4.565a1.062 1.062 0 0 0-.186-.105c-.291-.124-.663-.187-.663-.187s.372-.063.663-.187c.08-.034.153-.08.212-.123a4.052 4.052 0 0 1 .885-2.078c-.109-.182-.267-.356-.267-.356s.217.119.421.179A4.02 4.02 0 0 1 3.892 1l.118.208c-.82.685-1.352 1.789-1.352 3.034Zm-.452 4.285v.726h7.65V8.57C10.51 8.856 11 10 11 10H1c0-.744.522-1.359 1.205-1.473Z"
        clip-rule="evenodd"
      />
    </g>
    <defs>
      <filter
        id="filter0_di_175_2092"
        width="12"
        height="12.5"
        x="0"
        y="0"
        color-interpolation-filters="sRGB"
        filterUnits="userSpaceOnUse"
      >
        <feFlood flood-opacity="0" result="BackgroundImageFix" />
        <feColorMatrix
          in="SourceAlpha"
          result="hardAlpha"
          values="0 0 0 0 0 0 0 0 0 0 0 0 0 0 0 0 0 0 127 0"
        />
        <feOffset dy=".5" />
        <feComposite in2="hardAlpha" operator="out" />
        <feColorMatrix values="0 0 0 0 0 0 0 0 0 0 0 0 0 0 0 0 0 0 0.4 0" />
        <feBlend
          in2="BackgroundImageFix"
          result="effect1_dropShadow_175_2092"
        />
        <feBlend
          in="SourceGraphic"
          in2="effect1_dropShadow_175_2092"
          result="shape"
        />
        <feColorMatrix
          in="SourceAlpha"
          result="hardAlpha"
          values="0 0 0 0 0 0 0 0 0 0 0 0 0 0 0 0 0 0 127 0"
        />
        <feOffset dy=".5" />
        <feComposite in2="hardAlpha" k2="-1" k3="1" operator="arithmetic" />
        <feColorMatrix
          values="0 0 0 0 0.881945 0 0 0 0 0.788456 0 0 0 0 0.47527 0 0 0 0.5 0"
        />
        <feBlend in2="shape" result="effect2_innerShadow_175_2092" />
      </filter>
    </defs>
  </symbol>

  <!--Колокольчики-->
  <!--Уведомлять-->
  <symbol id="bs-bell" width="16" height="16" fill="none" viewBox="0 0 12 12">
    <path
      fill="currentColor"
      d="M3.2.96 2.4.12C1.029 1.2.114 2.88 0 4.8h1.143C1.257 3.18 2 1.8 3.2.96Zm7.657 3.84H12c-.114-1.92-.971-3.6-2.343-4.68l-.8.84c1.143.84 1.886 2.22 2 3.84Zm-1.143.3c0-1.86-1.2-3.36-2.857-3.78V.9c0-.48-.4-.9-.857-.9-.457 0-.857.42-.857.9v.42c-1.657.42-2.857 1.92-2.857 3.78v3.3L1.143 9.6v.6h9.714v-.6L9.714 8.4V5.1ZM6 12h.229c.4-.06.685-.36.8-.72.057-.12.114-.3.114-.48H4.857c0 .66.514 1.2 1.143 1.2Z"
    />
  </symbol>
  <!--Следить-->
  <symbol
    id="bs-far-bell"
    width="14"
    height="16"
    fill="none"
    viewBox="0 0 9 12"
  >
    <path
      fill="currentColor"
      d="M8.824 5.1c0-1.86-1.236-3.36-2.942-3.78V.9C5.882.42 5.471 0 5 0c-.47 0-.882.42-.882.9v.42A3.846 3.846 0 0 0 1.176 5.1v3.3L0 9.6v.6h10v-.6L8.824 8.4V5.1ZM5 12h.235c.412-.06.706-.36.824-.72.059-.12.117-.3.117-.48H3.824c0 .66.529 1.2 1.176 1.2Z"
    />
  </symbol>
  <!--Наблюдать-->
  <symbol
    id="bs-bell-explanation"
    width="14"
    height="16"
    fill="none"
    viewBox="0 0 9 12"
  >
    <path
      fill="currentColor"
      fill-rule="evenodd"
      d="M5.857 1.32c1.657.42 2.857 1.92 2.857 3.78v3.3l1.143 1.2v.6H.143v-.6l1.142-1.2V5.1c0-1.86 1.2-3.36 2.858-3.78V.9c0-.48.4-.9.857-.9.457 0 .857.42.857.9v.42ZM5.228 12H5c-.629 0-1.143-.54-1.143-1.2h2.286c0 .18-.058.36-.115.48-.114.36-.4.66-.8.72Zm-.54-4.547L4.4 4.408V3h1.2v1.408l-.284 3.045H4.69ZM4.449 9V7.85h1.109V9h-1.11Z"
      clip-rule="evenodd"
    />
  </symbol>
  <!--Наблюдать за первым сообщением-->
  <symbol
    id="bs-bell-one"
    width="14"
    height="16"
    fill="none"
    viewBox="0 0 9 12"
  >
    <path
      fill="currentColor"
      fill-rule="evenodd"
      d="M5.857 1.32c1.657.42 2.857 1.92 2.857 3.78v3.3l1.143 1.2v.6H.143v-.6l1.142-1.2V5.1c0-1.86 1.2-3.36 2.858-3.78V.9c0-.48.4-.9.857-.9.457 0 .857.42.857.9v.42ZM5.228 12H5c-.629 0-1.143-.54-1.143-1.2h2.286c0 .18-.058.36-.115.48-.114.36-.4.66-.8.72Zm-.454-3.642h.612V3.217h-.518l-1.325 1.08.331.425.511-.447c.087-.077.161-.141.224-.194.062-.058.127-.125.194-.202a91.559 91.559 0 0 1-.029.533v3.946Z"
      clip-rule="evenodd"
    />
  </symbol>
  <!--Без уведомлений-->
  <symbol
    id="bs-bell-slash"
    width="16"
    height="16"
    fill="none"
    viewBox="0 0 12 12"
  >
    <path
      fill="currentColor"
      fill-rule="evenodd"
      d="M6.882 1.32A3.846 3.846 0 0 1 9.824 5.1v2.896l-6.66-5.511A3.864 3.864 0 0 1 5.118 1.32V.9c0-.48.411-.9.882-.9.47 0 .882.42.882.9v.42Zm2.15 8.88-6.82-5.645a4.1 4.1 0 0 0-.036.545v3.3L1 9.6v.6h8.033ZM6.236 12H6c-.647 0-1.176-.54-1.176-1.2h2.352c0 .18-.058.36-.117.48-.118.36-.412.66-.824.72Z"
      clip-rule="evenodd"
    />
    <path
      fill="#B19F63"
      d="m.646 2.479.638-.77 9.72 8.043-.638.77L.646 2.48Z"
    />
  </symbol>
</svg>
