<?xml version="1.0" encoding="UTF-8"?>
<!--
Additional SVG icons
-->
<svg xmlns="http://www.w3.org/2000/svg" style="display: none">
  <!--Баги-->
  <symbol id="bagi" width="12" height="13" fill="none" viewBox="0 0 12 13">
    <g filter="url(#filter0_di_175_2098)">
      <path
        fill="#B19F63"
        fill-rule="evenodd"
        d="M11.405 7.437c-.476-.014-.953-.004-1.43-.004h-.138c0 .07.002.124 0 .178-.023.675-.142 1.327-.464 1.93-.035.064-.011.097.031.14.329.328.656.658.984.988l.496.499c.126.128.185.28.141.459a.472.472 0 0 1-.8.229c-.47-.46-.933-.926-1.398-1.389l-.088-.083c-.643.5-1.334.848-2.162.89V4.556H5.423v6.714c-.575.011-1.468-.28-2.253-.976-.039.043-.078.085-.116.129L1.85 11.784a.894.894 0 0 1-.117.114.475.475 0 0 1-.757-.271c-.043-.19.023-.343.148-.482.466-.521.93-1.045 1.395-1.567.048-.053.074-.095.037-.173-.236-.489-.346-1.01-.38-1.548l-.026-.424h-.138c-.469 0-.938-.01-1.406.004-.3.01-.503-.1-.607-.385v-.21c.119-.29.34-.383.642-.374.46.015.922.004 1.383.004h.126c.004-.03.007-.046.007-.06 0-.693.002-1.385-.003-2.077 0-.046-.033-.102-.068-.137-.381-.387-.766-.77-1.15-1.155-.03-.03-.06-.06-.089-.093a.469.469 0 0 1 .068-.701c.196-.153.446-.13.644.067.402.4.8.803 1.204 1.2a.25.25 0 0 0 .16.071c2.05.004 4.101.004 6.152 0 .054 0 .12-.032.16-.07.39-.385.775-.773 1.162-1.16.03-.03.06-.061.093-.089a.474.474 0 0 1 .747.17c.086.19.041.387-.135.564-.394.396-.79.79-1.182 1.188a.287.287 0 0 0-.076.18c-.006.661-.004 1.322-.004 1.983v.119c.517 0 1.017.01 1.516-.004.303-.009.524.085.643.373v.211c-.102.278-.297.393-.595.385ZM4.657.435c.848-.564 1.747-.58 2.613-.047.738.454 1.116 1.142 1.127 2.029H3.604c.005-.851.36-1.521 1.053-1.982Z"
        clip-rule="evenodd"
      />
    </g>
    <defs>
      <filter
        id="filter0_di_175_2098"
        width="12"
        height="12.5"
        x="0"
        y="0"
        color-interpolation-filters="sRGB"
        filterUnits="userSpaceOnUse"
      >
        <feFlood flood-opacity="0" result="BackgroundImageFix" />
        <feColorMatrix
          in="SourceAlpha"
          result="hardAlpha"
          values="0 0 0 0 0 0 0 0 0 0 0 0 0 0 0 0 0 0 127 0"
        />
        <feOffset dy=".5" />
        <feComposite in2="hardAlpha" operator="out" />
        <feColorMatrix values="0 0 0 0 0 0 0 0 0 0 0 0 0 0 0 0 0 0 0.4 0" />
        <feBlend
          in2="BackgroundImageFix"
          result="effect1_dropShadow_175_2098"
        />
        <feBlend
          in="SourceGraphic"
          in2="effect1_dropShadow_175_2098"
          result="shape"
        />
        <feColorMatrix
          in="SourceAlpha"
          result="hardAlpha"
          values="0 0 0 0 0 0 0 0 0 0 0 0 0 0 0 0 0 0 127 0"
        />
        <feOffset dy=".5" />
        <feComposite in2="hardAlpha" k2="-1" k3="1" operator="arithmetic" />
        <feColorMatrix
          values="0 0 0 0 0.881945 0 0 0 0 0.788456 0 0 0 0 0.47527 0 0 0 0.5 0"
        />
        <feBlend in2="shape" result="effect2_innerShadow_175_2098" />
      </filter>
    </defs>
  </symbol>

  <!--Предложения-->
  <symbol
    id="predlozheniya"
    width="12"
    height="14"
    fill="none"
    viewBox="0 0 12 14"
  >
    <g filter="url(#filter0_di_175_2080)">
      <path
        fill="#B19F63"
        fill-rule="evenodd"
        d="M9.59 5.999c-.011.298-.008.596-.025.893-.015.29-.099.562-.298.785a.28.28 0 0 1-.185.084c-1.989.004-3.977.004-5.966 0a.375.375 0 0 1-.18-.052c-.562-.33-.823-.837-.9-1.459-.042-.348-.066-.692.038-1.035.13-.425.398-.745.753-1.011.192-.144.374-.306.532-.484a.722.722 0 0 0 .162-.716c-.029-.094-.088-.18-.139-.278.06.018.124.034.186.056.925.326 1.297 1.39.798 2.151-.135.206-.273.416-.276.678-.003.28.105.447.33.495.308.065.584-.05.688-.297.098-.237.11-.489.098-.74a2.371 2.371 0 0 0-.295-1.021c-.206-.385-.34-.787-.322-1.23a2.108 2.108 0 0 1 .638-1.452c.212-.213.437-.414.653-.623.217-.212.406-.443.518-.727.004-.01.017-.015.018-.016.02.177.025.36.06.536.053.262.199.473.407.65.473.403.905.845 1.251 1.36.298.443.512.918.543 1.455.032.558-.182 1.037-.512 1.476-.088.117-.184.227-.269.345-.115.16-.19.335-.131.538.051.175.2.265.38.218.335-.087.5-.331.588-.638.023-.082.033-.167.05-.25.1-.499.539-.8 1.051-.72l.163.031c-.305.283-.392.628-.407.998Zm.264 3.012c-.163.638-.33 1.275-.486 1.914-.025.099-.068.116-.159.115a45.389 45.389 0 0 0-1.107.002c-.042 0-.109.04-.121.075-.213.605-.419 1.213-.625 1.82-.006.02-.002.042-.003.063h-2.71c-.024-.09-.045-.18-.074-.267-.174-.524-.353-1.047-.525-1.572-.03-.09-.069-.127-.171-.125-.37.007-.738.002-1.107.004-.067 0-.11-.006-.13-.086-.204-.811-.413-1.621-.62-2.432-.007-.028-.008-.057-.012-.092H10c-.05.199-.097.39-.146.58Z"
        clip-rule="evenodd"
      />
    </g>
    <defs>
      <filter
        id="filter0_di_175_2080"
        width="12"
        height="13.5"
        x="0"
        y="0"
        color-interpolation-filters="sRGB"
        filterUnits="userSpaceOnUse"
      >
        <feFlood flood-opacity="0" result="BackgroundImageFix" />
        <feColorMatrix
          in="SourceAlpha"
          result="hardAlpha"
          values="0 0 0 0 0 0 0 0 0 0 0 0 0 0 0 0 0 0 127 0"
        />
        <feOffset dy=".5" />
        <feComposite in2="hardAlpha" operator="out" />
        <feColorMatrix values="0 0 0 0 0 0 0 0 0 0 0 0 0 0 0 0 0 0 0.4 0" />
        <feBlend
          in2="BackgroundImageFix"
          result="effect1_dropShadow_175_2080"
        />
        <feBlend
          in="SourceGraphic"
          in2="effect1_dropShadow_175_2080"
          result="shape"
        />
        <feColorMatrix
          in="SourceAlpha"
          result="hardAlpha"
          values="0 0 0 0 0 0 0 0 0 0 0 0 0 0 0 0 0 0 127 0"
        />
        <feOffset dy=".5" />
        <feComposite in2="hardAlpha" k2="-1" k3="1" operator="arithmetic" />
        <feColorMatrix
          values="0 0 0 0 0.881945 0 0 0 0 0.788456 0 0 0 0 0.47527 0 0 0 0.5 0"
        />
        <feBlend in2="shape" result="effect2_innerShadow_175_2080" />
      </filter>
    </defs>
  </symbol>

  <!--Стафф-->
  <symbol id="staff" width="12" height="13" fill="none" viewBox="0 0 12 13">
    <g filter="url(#filter0_di_175_2104)">
      <path
        fill="#B19F63"
        fill-rule="evenodd"
        d="M11.584 7.64c-.504 2.043-2.375 2.646-2.375 2.646l-.201-1.738s2.09-.65 1.73-4.915c-.023-.276-2.143-.204-2.143-.204l-.153-1.715s1.93-.006 2.916 0c.911.007.725 3.9.226 5.926ZM.767 1.714h7.214l.154 1.715H.614l.153-1.715ZM1.27 0h6.228l.218 1.143H1.029L1.269 0Zm-.24 4h1.714l-.171 4H.686l.343-4Zm2.228 0h2.229l.171 4H3.086l.171-4Zm4.458 0 .342 4H6.172L6 4h1.715Zm1.034 6.286H0L.171 8.57h8.4l.178 1.715Zm-.177.571L8.765 12H.001l.17-1.143h8.4Z"
        clip-rule="evenodd"
      />
    </g>
    <defs>
      <filter
        id="filter0_di_175_2104"
        width="12"
        height="12.5"
        x="0"
        y="0"
        color-interpolation-filters="sRGB"
        filterUnits="userSpaceOnUse"
      >
        <feFlood flood-opacity="0" result="BackgroundImageFix" />
        <feColorMatrix
          in="SourceAlpha"
          result="hardAlpha"
          values="0 0 0 0 0 0 0 0 0 0 0 0 0 0 0 0 0 0 127 0"
        />
        <feOffset dy=".5" />
        <feComposite in2="hardAlpha" operator="out" />
        <feColorMatrix values="0 0 0 0 0 0 0 0 0 0 0 0 0 0 0 0 0 0 0.4 0" />
        <feBlend
          in2="BackgroundImageFix"
          result="effect1_dropShadow_175_2104"
        />
        <feBlend
          in="SourceGraphic"
          in2="effect1_dropShadow_175_2104"
          result="shape"
        />
        <feColorMatrix
          in="SourceAlpha"
          result="hardAlpha"
          values="0 0 0 0 0 0 0 0 0 0 0 0 0 0 0 0 0 0 127 0"
        />
        <feOffset dy=".5" />
        <feComposite in2="hardAlpha" k2="-1" k3="1" operator="arithmetic" />
        <feColorMatrix
          values="0 0 0 0 0.881945 0 0 0 0 0.788456 0 0 0 0 0.47527 0 0 0 0.5 0"
        />
        <feBlend in2="shape" result="effect2_innerShadow_175_2104" />
      </filter>
    </defs>
  </symbol>

  <!--Штаб теней-->
  <symbol
    id="shtab-tenej"
    width="12"
    height="13"
    fill="none"
    viewBox="0 0 12 13"
  >
    <g filter="url(#filter0_di_175_2083)">
      <path
        fill="#B19F63"
        fill-rule="evenodd"
        d="m4.662 8.74-.548-.37 6.667-7.098-7.032 6.73-.366-.553L9.32 1.457l2.01-.738-.731 2.028L4.662 8.74Zm-.114-7.078c-.197-.401-3.276-.115-3.407.174-.132.29.359 2.37.359 2.37l1.358-.056-.124-1.135.764-.077.509 1.633-.352.414s-2.318.352-2.359.357c-.04.005-.941-.633-.941-.633S-.172 1.33.058.783C.288.238 3.953 0 3.953 0s1.701.511 2.074.934c.285.324.62 1.842.762 2.531L5.766 4.58c-.347-.852-1.07-2.616-1.218-2.918Zm-3.174 8.552 1.461-1.66-.822-1.566.274-.277 1.37 1.752 1.736 1.382-.274.277-1.553-.83-1.644 1.475s.213.323-.183.738c-.44.461-1.004-.093-1.004-.093s-.55-.57-.092-1.014c.411-.399.73-.184.73-.184Zm6.844-1.91L12 11.574 10.94 12 7.473 9.421l-.755-2.177.879-.894.621 1.954Z"
        clip-rule="evenodd"
      />
    </g>
    <defs>
      <filter
        id="filter0_di_175_2083"
        width="12"
        height="12.5"
        x="0"
        y="0"
        color-interpolation-filters="sRGB"
        filterUnits="userSpaceOnUse"
      >
        <feFlood flood-opacity="0" result="BackgroundImageFix" />
        <feColorMatrix
          in="SourceAlpha"
          result="hardAlpha"
          values="0 0 0 0 0 0 0 0 0 0 0 0 0 0 0 0 0 0 127 0"
        />
        <feOffset dy=".5" />
        <feComposite in2="hardAlpha" operator="out" />
        <feColorMatrix values="0 0 0 0 0 0 0 0 0 0 0 0 0 0 0 0 0 0 0.4 0" />
        <feBlend
          in2="BackgroundImageFix"
          result="effect1_dropShadow_175_2083"
        />
        <feBlend
          in="SourceGraphic"
          in2="effect1_dropShadow_175_2083"
          result="shape"
        />
        <feColorMatrix
          in="SourceAlpha"
          result="hardAlpha"
          values="0 0 0 0 0 0 0 0 0 0 0 0 0 0 0 0 0 0 127 0"
        />
        <feOffset dy=".5" />
        <feComposite in2="hardAlpha" k2="-1" k3="1" operator="arithmetic" />
        <feColorMatrix
          values="0 0 0 0 0.881945 0 0 0 0 0.788456 0 0 0 0 0.47527 0 0 0 0.5 0"
        />
        <feBlend in2="shape" result="effect2_innerShadow_175_2083" />
      </filter>
    </defs>
  </symbol>

  <!--Верховные хранители-->
  <symbol
    id="verhovnye-hraniteli"
    width="12"
    height="13"
    fill="none"
    viewBox="0 0 12 13"
  >
    <g filter="url(#filter0_di_175_2077)">
      <path
        fill="#B19F63"
        fill-rule="evenodd"
        d="M11.999 4.004c-.02.03-.183.054-.374.123a3.24 3.24 0 0 1-.958.157 8.95 8.95 0 0 0-1.297.09c-.289.053-.733.307-.76.359-.026.051.022.322.036.358.013.037.206.135.315.236.109.101.369.482.456.684.087.202.303.325.292.348-.012.022-.04.016-.14-.045-.1-.06-.34-.27-.456-.337-.117-.067-.277-.161-.315-.156-.039.004.023.16.046.269-.009-.041.03.352.094.538.08.235.549.45.888 1.189.171.374.168.746.479 1.435.114.255.493.758.479.774-.014.017-.106-.08-.304-.247-.199-.167-.6-.613-.771-.942-.17-.329-.563-.866-.818-1.02-.255-.154-.43-.241-.467-.236-.038.005-.06.04-.14.101-.08.061-.152.09-.152.09s-.005.015-.024.224c-.019.21-.105.462-.315.74-.21.28-.245.56-.269.572-.023.012-.023.049-.035-.078-.012-.127.028-.241.059-.46.03-.219.016-.496-.024-.493-.04.003-.08.088-.21.19-.131.102-.208.091-.41.348-.165.212-.184.688-.548 1.211-.283.406-.6.5-1.145 1.223-.3.397-.423.757-.444.75-.021-.005.05-.21.105-.493.056-.281.22-.541.374-.863.147-.307.395-.667.502-1.032.068-.23.066-.707.024-.751a1.043 1.043 0 0 0-.328-.146c-.037.003-.119.046-.385.134-.267.089-.687.042-.865.045-.177.003-.415.09-.444.068-.028-.022.11-.098.433-.202.322-.105.507-.266.514-.292.006-.026-.06-.03-.164-.056-.103-.026-.3-.135-.55-.202-.247-.066-.517.074-1.086.146-.568.073-1.324-.301-2.032-.348-.493-.032-.872.044-.865 0 .007-.044.563-.169.841-.224.278-.055 1.192-.07 1.636-.112.444-.042.806-.364.83-.393.022-.028-.014-.059-.024-.157s-.023-.19-.023-.19-.1-.028-.35-.27c-.251-.24-.367-.539-.456-.695-.09-.156-.257-.303-.257-.303s.066.008.163.068c.105.064.245.182.304.246.114.125.43.237.456.225.025-.013-.02-.073-.047-.213-.029-.14.068-.111-.105-.539-.094-.23-.599-.629-.842-1.143-.271-.576-.191-.818-.444-1.402-.176-.41-.607-.912-.584-.931.023-.02.466.4.62.572.153.171.854 1.262 1.063 1.469.208.207.673.44.7.437.028-.002.092-.06.14-.1.05-.04.164-.113.164-.113s-.007-.261.094-.516c.1-.254.288-.459.397-.684.091-.187.125-.439.14-.247.009.108-.054.324-.07.516-.016.193-.035.35.012.427.01.017.013.031.012.042-.018.032-.001.026 0 0a.524.524 0 0 1 .07-.087c.144-.155.49-.238.619-.561.128-.323.199-.56.42-.987.222-.428.635-.686.958-1.01C6.761.81 7.162 0 7.162 0s-.036.24-.116.508a4.21 4.21 0 0 1-.235.591c-.16.329-.63 1.176-.677 1.402-.047.226-.032.621-.012.673.01.026.089.041.17.072.079.031.16.077.18.074.04-.007.196-.132.55-.18.354-.048.438 0 .689 0 .214 0 .43-.104.444-.09.028.03.005.03-.082.09-.087.061-.327.119-.514.202-.187.083-.347.186-.35.213-.007.056.248.051.49.19.169.098.2.07.374.08.277.014.814-.177 1.192-.147.293.024.584.064.958.18.374.115.931.195 1.25.18.319-.017.546-.065.526-.034Zm-3.807 1.21c-.207-.53-.737-1.173-1.625-1.42-.973-.271-1.785.225-2.088.43-.303.204-1.018.794-.867 2.203.14 1.29 1.496 1.936 2.436 1.876 1.226-.077 2.078-1.044 2.184-1.57.09-.45.157-1.016-.04-1.518ZM6.106 8.049c-.866-.005-1.982-.537-2.128-1.665-.166-1.284.485-1.745.75-1.924.266-.18.883-.652 1.792-.387.984.287 1.335.84 1.467 1.247.13.407.124.938.044 1.332-.092.461-.921 1.403-1.925 1.397Zm1.713-2.547c-.145-.53-.417-.79-.795-.881-.425-.102-.877 0-1.232.387-.3.327-.265.418-.313.387-.049-.031-.02-.418.19-.752.209-.335.49-.419.493-.452.003-.033-.429-.048-.706.086-.277.135-.536.205-.828.548-.293.343-.518.562-.347 1.129.05.166.264.567.727.72.436.143.725.061.75.118.026.057-.478.241-.973.194-.41-.04-.454-.249-.515-.183-.062.066.482.673 1.108.892.327.114.777.203 1.12.064.311-.126.544-.455.615-.795.126-.598-.27-1.034-.257-1.075.013-.04.337.102.56.505.222.404.163.574.167.592.005.017.06-.002.113-.097.052-.096.268-.857.123-1.387Z"
        clip-rule="evenodd"
      />
    </g>
    <defs>
      <filter
        id="filter0_di_175_2077"
        width="12"
        height="12.5"
        x="0"
        y="0"
        color-interpolation-filters="sRGB"
        filterUnits="userSpaceOnUse"
      >
        <feFlood flood-opacity="0" result="BackgroundImageFix" />
        <feColorMatrix
          in="SourceAlpha"
          result="hardAlpha"
          values="0 0 0 0 0 0 0 0 0 0 0 0 0 0 0 0 0 0 127 0"
        />
        <feOffset dy=".5" />
        <feComposite in2="hardAlpha" operator="out" />
        <feColorMatrix values="0 0 0 0 0 0 0 0 0 0 0 0 0 0 0 0 0 0 0.4 0" />
        <feBlend
          in2="BackgroundImageFix"
          result="effect1_dropShadow_175_2077"
        />
        <feBlend
          in="SourceGraphic"
          in2="effect1_dropShadow_175_2077"
          result="shape"
        />
        <feColorMatrix
          in="SourceAlpha"
          result="hardAlpha"
          values="0 0 0 0 0 0 0 0 0 0 0 0 0 0 0 0 0 0 127 0"
        />
        <feOffset dy=".5" />
        <feComposite in2="hardAlpha" k2="-1" k3="1" operator="arithmetic" />
        <feColorMatrix
          values="0 0 0 0 0.881945 0 0 0 0 0.788456 0 0 0 0 0.47527 0 0 0 0.5 0"
        />
        <feBlend in2="shape" result="effect2_innerShadow_175_2077" />
      </filter>
    </defs>
  </symbol>
  <!--Площадь искусств-->
  <symbol
    id="ploshhad-iskusstv"
    width="12"
    height="13"
    fill="none"
    viewBox="0 0 12 13"
  >
    <g filter="url(#filter0_di_175_2089)">
      <path
        fill="#B19F63"
        fill-rule="evenodd"
        d="M10.998 8.507c-.537.379-1.209.218-1.625-.276-.527-.625-.221-1.442.56-1.645 1.585-.41 2.064-.982 2.064-.982s.112 2.121-.998 2.903Zm-6.376.052C1.377 9.212-.22 7.78.024 5.38.27 2.982 3.122.652 5.78.118c2.656-.535 3.893.922 3.81 1.245-.084.324-.344.329-.863.737-.573.452-.729.991-.657 1.26.21.776.906.543 1.31.46.403-.083.625.352.358.813-.267.461-1.87 3.274-5.115 3.927Zm-1.91-4.203c-.066-.285-.263-.527-.781-.406-.22.05-.554.282-.688.534-.208.39.116.788.542.702.742-.149.992-.545.927-.83ZM2.56 6.318c-.22.051-.553.282-.688.535-.207.389.116.788.542.702.742-.15.993-.546.927-.83-.065-.285-.263-.528-.78-.407Zm2.046-4.195c-.065-.284-.263-.526-.78-.406-.22.051-.554.282-.689.535-.208.39.116.788.542.702.742-.15.992-.546.927-.83Zm.936 4.078c-.22.051-.554.282-.688.534-.208.39.115.789.542.703.742-.15.992-.546.927-.83-.066-.286-.264-.528-.781-.407Zm1.851-5.04C7.328.874 7.13.632 6.613.753c-.22.051-.554.282-.689.534-.207.39.116.788.542.703.742-.15.993-.546.927-.83ZM4.65 11.423l3.57-3.128.97 1.153-4.08 2.52-.012-.013a.35.35 0 0 1-.17.044.388.388 0 0 1-.389-.383c0-.049.067-.126.118-.186l-.007-.007Zm3.914-3.53.033-.024a.26.26 0 0 1 .347.038l.793.941c.084.1.066.246-.041.326l-.033.024a.26.26 0 0 1-.348-.039l-.792-.94a.222.222 0 0 1 .041-.327Z"
        clip-rule="evenodd"
      />
    </g>
    <defs>
      <filter
        id="filter0_di_175_2089"
        width="12"
        height="12.5"
        x="0"
        y="0"
        color-interpolation-filters="sRGB"
        filterUnits="userSpaceOnUse"
      >
        <feFlood flood-opacity="0" result="BackgroundImageFix" />
        <feColorMatrix
          in="SourceAlpha"
          result="hardAlpha"
          values="0 0 0 0 0 0 0 0 0 0 0 0 0 0 0 0 0 0 127 0"
        />
        <feOffset dy=".5" />
        <feComposite in2="hardAlpha" operator="out" />
        <feColorMatrix values="0 0 0 0 0 0 0 0 0 0 0 0 0 0 0 0 0 0 0.4 0" />
        <feBlend
          in2="BackgroundImageFix"
          result="effect1_dropShadow_175_2089"
        />
        <feBlend
          in="SourceGraphic"
          in2="effect1_dropShadow_175_2089"
          result="shape"
        />
        <feColorMatrix
          in="SourceAlpha"
          result="hardAlpha"
          values="0 0 0 0 0 0 0 0 0 0 0 0 0 0 0 0 0 0 127 0"
        />
        <feOffset dy=".5" />
        <feComposite in2="hardAlpha" k2="-1" k3="1" operator="arithmetic" />
        <feColorMatrix
          values="0 0 0 0 0.881945 0 0 0 0 0.788456 0 0 0 0 0.47527 0 0 0 0.5 0"
        />
        <feBlend in2="shape" result="effect2_innerShadow_175_2089" />
      </filter>
    </defs>
  </symbol>
  <!--Новости Иерихона-->
  <symbol
    id="news-ierihon"
    width="12"
    height="14"
    fill="none"
    viewBox="0 0 12 14"
  >
    <g filter="url(#filter0_di_175_2086)">
      <path
        fill="#B19F63"
        fill-rule="evenodd"
        d="M9.577 5.412c-.246.169-.409.227-.409.277 0 .05.153.213.287.717.133.505.1.692.114.832.014.139.3.287.433.334.134.047.597.171.597.171s-.983.008-1.267.008h-.679s.197-.077.278-.31c.035-.098-.02-.562-.09-.831-.07-.269-.205-.578-.245-.595-.04-.017-.382.138-.613.212-.23.074-.564.139-.564.139s.23-.237.45-.408c.232-.181.45-.315.45-.359 0-.044-.215-.306-.45-.513-.206-.18-.395-.29-.5-.31-.104-.02-.21.026-.261.18-.052.153-.098.35-.098.35s-.141-.835-.196-1.532c-.067-.838-.05-1.565-.05-1.565s.319 1.102.409 1.377c.087.266.11.372.442.563.33.19.536.305.768.513.276.246.492.588.532.595.04.007.158-.068.49-.204.4-.162 1.595-.652 1.595-.652s-1.176.842-1.423 1.01Zm-1.12 2.34s-.71-.082-1.414.716c-.706.799-.875 2.34-.875 2.34v-2.69s.596-.117.596-.701-.596-.652-.596-.652L6.159 0l.27.22s.107 3.275.205 4.14a8.28 8.28 0 0 0 .67 2.413c.292.622 1.153.978 1.153.978Zm-3.222-.335c0 .584.597.7.597.7v2.69s-.17-1.54-.875-2.339c-.705-.798-1.414-.717-1.414-.717s.86-.356 1.153-.978a8.298 8.298 0 0 0 .67-2.413c.098-.865.205-4.14.205-4.14L5.84 0l-.009 6.765s-.597.068-.597.652ZM4.99 5.306s-.046-.197-.098-.35c-.052-.154-.157-.2-.262-.18-.104.02-.293.13-.498.31-.236.207-.45.47-.45.513 0 .044.217.178.45.359.219.171.45.408.45.408s-.334-.065-.565-.139c-.23-.074-.574-.229-.613-.212-.04.017-.175.326-.245.595-.07.269-.125.733-.09.831.081.233.278.31.278.31h-.679c-.284 0-1.267-.008-1.267-.008s.463-.124.597-.171c.133-.047.419-.195.433-.334.014-.14-.019-.327.114-.832.134-.504.287-.667.287-.717 0-.05-.163-.108-.41-.277C2.177 5.243 1 4.402 1 4.402l1.594.651c.333.136.451.21.491.204.04-.007.256-.349.531-.595.233-.208.438-.323.77-.513.33-.19.354-.297.441-.563.09-.275.409-1.378.408-1.377 0 0 .018.727-.049 1.565a20.769 20.769 0 0 1-.196 1.532Zm-.082 3.61c.396.71.561 1.332.59 2.201.027.87.024 1.883.024 1.883l-.793-1.182s.328.15.294-.318a4.234 4.234 0 0 0-.335-1.418C4.477 9.598 4.228 9 3.592 8.591c-.519-.334-.772-.385-1.21-.465-.26-.047-.981-.147-.981-.147l-.025-.016h1.938c.605 0 1.199.244 1.594.954Zm-1.373-.073c.003.014-.054.229.17.511.208.262.508.223.508.223s.07.059.205.358c.134.3.22.628.22.628s-.665-.254-1.267-.864c-.602-.61-.752-1.23-.752-1.23s.262.012.343.056c.082.045.427.222.573.318Zm3.557.074c.395-.71.989-.954 1.594-.954h1.938l-.025.016s-.72.1-.98.147c-.44.08-.692.131-1.211.465-.636.408-.885 1.007-1.096 1.491-.21.484-.301.951-.335 1.418-.034.467.294.318.294.318L6.478 13s-.003-1.014.025-1.883.193-1.49.589-2.2Zm.695.66s.3.04.508-.223c.224-.282.167-.497.17-.51.146-.097.491-.274.573-.319.08-.044.343-.057.343-.057s-.15.621-.752 1.231c-.602.61-1.268.864-1.268.864s.087-.328.221-.628c.135-.299.205-.358.205-.358Z"
        clip-rule="evenodd"
      />
    </g>
    <defs>
      <filter
        id="filter0_di_175_2086"
        width="12"
        height="13.5"
        x="0"
        y="0"
        color-interpolation-filters="sRGB"
        filterUnits="userSpaceOnUse"
      >
        <feFlood flood-opacity="0" result="BackgroundImageFix" />
        <feColorMatrix
          in="SourceAlpha"
          result="hardAlpha"
          values="0 0 0 0 0 0 0 0 0 0 0 0 0 0 0 0 0 0 127 0"
        />
        <feOffset dy=".5" />
        <feComposite in2="hardAlpha" operator="out" />
        <feColorMatrix values="0 0 0 0 0 0 0 0 0 0 0 0 0 0 0 0 0 0 0.4 0" />
        <feBlend
          in2="BackgroundImageFix"
          result="effect1_dropShadow_175_2086"
        />
        <feBlend
          in="SourceGraphic"
          in2="effect1_dropShadow_175_2086"
          result="shape"
        />
        <feColorMatrix
          in="SourceAlpha"
          result="hardAlpha"
          values="0 0 0 0 0 0 0 0 0 0 0 0 0 0 0 0 0 0 127 0"
        />
        <feOffset dy=".5" />
        <feComposite in2="hardAlpha" k2="-1" k3="1" operator="arithmetic" />
        <feColorMatrix
          values="0 0 0 0 0.881945 0 0 0 0 0.788456 0 0 0 0 0.47527 0 0 0 0.5 0"
        />
        <feBlend in2="shape" result="effect2_innerShadow_175_2086" />
      </filter>
    </defs>
  </symbol>
  <!--Главная площадь-->
  <symbol id="general" width="12" height="12" fill="none" viewBox="0 0 12 12">
    <g filter="url(#filter0_di_175_2092)">
      <path
        fill="#B19F63"
        fill-rule="evenodd"
        d="M10.09 4.565a4.05 4.05 0 0 1-1.043 2.622c-.067.163-.12.364-.095.572.038.323.542.685.542.685v.436h-2.53l.482-1.183.02-.01.01-.025c1.138-.597 1.892-1.903 1.892-3.42 0-1.245-.497-2.349-1.316-3.034L8.169 1c.317.195.606.434.857.708.205-.06.421-.18.421-.18s-.158.175-.267.357c.473.58.79 1.294.885 2.078.059.043.131.089.212.123.291.124.663.187.663.187s-.372.063-.663.187c-.07.03-.132.067-.186.105Zm-3.677 2.69.113 1.625H5.442l.113-1.624C4.16 7.04 3.09 5.802 3.09 4.3c0-1.652 1.296-2.991 2.895-2.991 1.6 0 2.895 1.34 2.895 2.991 0 1.502-1.071 2.741-2.466 2.956Zm1.624-1.851a1.007 1.007 0 0 0-.72-.607 1.43 1.43 0 0 1-.071.171c.03.22.018.447-.044.667a1.387 1.387 0 0 0-.134-.392 1.457 1.457 0 0 1-.098.11c-.129.543-.431 1.026-.887 1.335a2.308 2.308 0 0 0 1.954-1.284Zm-.953-1.296c-.103-.627-.677-1.048-1.282-.943-.605.106-1.013.7-.91 1.326.103.626.677 1.048 1.283.942.605-.106 1.012-.7.91-1.325Zm-1.1 2.585.066-.003c.162-.291.279-.65.175-.95a1.405 1.405 0 0 1-.145.018c-.173.144-.376.25-.593.297a.886.886 0 0 0 .282-.312 1.365 1.365 0 0 1-.153-.034 1.974 1.974 0 0 1-1.586-.128 2.296 2.296 0 0 0 1.953 1.112ZM3.667 4.3c0 .464.13.895.35 1.262.336.044.696-.059.891-.32a1.458 1.458 0 0 1-.095-.131 2.253 2.253 0 0 1-.565-.389.96.96 0 0 0 .422.107 1.508 1.508 0 0 1-.032-.097c-.424-.368-.637-.947-.71-1.532a2.44 2.44 0 0 0-.261 1.1Zm.274-1.13c.141.321.392.608.716.633a1.48 1.48 0 0 1 .052-.128 1.647 1.647 0 0 1 .043-.683c.025.121.067.265.135.39a.775.775 0 0 1 .05-.061c.12-.56.432-1.08.916-1.407a2.31 2.31 0 0 0-1.912 1.257Zm2.041-1.262c-.033 0-.066.003-.1.005-.144.265-.287.644-.163.951l.031-.006c.053-.01.106-.015.158-.018.176-.13.374-.231.58-.297-.1.08-.196.19-.264.315l.062.013c.536-.169 1.13-.091 1.648.145a2.295 2.295 0 0 0-1.952-1.108Zm1.084 1.448c.035.042.067.087.097.133.198.08.38.201.536.365a.768.768 0 0 0-.393-.081c.015.042.03.086.041.13.4.394.66.903.699 1.479a2.443 2.443 0 0 0-.099-2.344c-.303-.014-.665.073-.88.318Zm-.444 1.481a.552.552 0 0 0-.056-.314.562.562 0 0 0-.202-.244l-.009.005c.003.01.005.02.009.029.041.09.066.186.07.286a.574.574 0 0 1-.106.353.463.463 0 0 1-.295.195.307.307 0 0 1-.079.002.893.893 0 0 1-.369-.11 1.078 1.078 0 0 1-.338-.303c-.028-.037-.058-.073-.072-.12l-.01-.042a.163.163 0 0 0 .004-.004.556.556 0 0 0 .434.135c.047-.004.084-.008.114-.014a.323.323 0 0 0 .07-.018.102.102 0 0 0 .037-.025c-.014-.006-.026-.013-.038-.014a.845.845 0 0 1-.288-.083.473.473 0 0 1-.22-.216.455.455 0 0 1-.03-.438.624.624 0 0 1 .236-.262c.039-.026.077-.053.117-.076.028-.016.059-.027.088-.04a.92.92 0 0 1 .286-.076.387.387 0 0 1 .175.02.552.552 0 0 0-.26.21c-.078.118-.132.273-.11.318.009-.01.017-.017.023-.026a.775.775 0 0 1 .251-.227.505.505 0 0 1 .16-.059.422.422 0 0 1 .117-.004c.049.005.099.007.145.022.078.025.15.065.202.131a.62.62 0 0 1 .058.1c.016.032.027.066.039.1.03.08.03.166.026.25-.002.05-.002.1-.012.149-.02.088-.043.176-.07.263a.322.322 0 0 1-.097.147Zm-3.966-.595c0 1.517.79 2.823 1.927 3.42l.01.025.02.01.482 1.183h-2.53v-.436s.505-.362.542-.685a1.158 1.158 0 0 0-.095-.572A4.049 4.049 0 0 1 1.97 4.565a1.062 1.062 0 0 0-.186-.105c-.291-.124-.663-.187-.663-.187s.372-.063.663-.187c.08-.034.153-.08.212-.123a4.052 4.052 0 0 1 .885-2.078c-.109-.182-.267-.356-.267-.356s.217.119.421.179A4.02 4.02 0 0 1 3.892 1l.118.208c-.82.685-1.352 1.789-1.352 3.034Zm-.452 4.285v.726h7.65V8.57C10.51 8.856 11 10 11 10H1c0-.744.522-1.359 1.205-1.473Z"
        clip-rule="evenodd"
      />
    </g>
    <defs>
      <filter
        id="filter0_di_175_2092"
        width="12"
        height="12.5"
        x="0"
        y="0"
        color-interpolation-filters="sRGB"
        filterUnits="userSpaceOnUse"
      >
        <feFlood flood-opacity="0" result="BackgroundImageFix" />
        <feColorMatrix
          in="SourceAlpha"
          result="hardAlpha"
          values="0 0 0 0 0 0 0 0 0 0 0 0 0 0 0 0 0 0 127 0"
        />
        <feOffset dy=".5" />
        <feComposite in2="hardAlpha" operator="out" />
        <feColorMatrix values="0 0 0 0 0 0 0 0 0 0 0 0 0 0 0 0 0 0 0.4 0" />
        <feBlend
          in2="BackgroundImageFix"
          result="effect1_dropShadow_175_2092"
        />
        <feBlend
          in="SourceGraphic"
          in2="effect1_dropShadow_175_2092"
          result="shape"
        />
        <feColorMatrix
          in="SourceAlpha"
          result="hardAlpha"
          values="0 0 0 0 0 0 0 0 0 0 0 0 0 0 0 0 0 0 127 0"
        />
        <feOffset dy=".5" />
        <feComposite in2="hardAlpha" k2="-1" k3="1" operator="arithmetic" />
        <feColorMatrix
          values="0 0 0 0 0.881945 0 0 0 0 0.788456 0 0 0 0 0.47527 0 0 0 0.5 0"
        />
        <feBlend in2="shape" result="effect2_innerShadow_175_2092" />
      </filter>
    </defs>
  </symbol>
</svg>
